<?xml-stylesheet href="main.css" type="text/css"?>
<svg class="special-icon-svg special-icon17-svg" xmlns="http://www.w3.org/2000/svg" aria-labelledby="special-icon17-svg-title-3b91b3a9-a0cd-4a12-9d0f-ad9afd17aed2" viewBox="0 0 123.1 115.94"><g><rect class="area" x="5.43" y="0.19" width="107.96" height="107.96" rx="29.84" ry="29.84"></rect><path class="gr2" d="M79,102.85c-1-2,.41-3.49-1.49-3.3-2.16.22-6.8-.22-7.85-1.36s-2.53-4.89-3.27-8.86a22.13,22.13,0,0,1,7.13-.54,10.48,10.48,0,0,0,0,3.44c.41,2.55,3,3.14,6.42,3.87,1,.2,2.23-1.85,4-1.28,1.58.52,2.41,1.72,1.94,3.94a9.53,9.53,0,0,1-2.64,4.43A2.76,2.76,0,0,1,79,102.85Z"></path><path class="gr3" d="M68.22,81.47l-.24,0a8.54,8.54,0,0,1,1.52-4l-8.28-3A8.71,8.71,0,0,1,60,78.45C62.67,80.05,65.37,81.54,68.22,81.47Z"></path><path class="bg1" d="M73.38,57.82h0C69,55.94,62,54.19,57.05,61.65S53.1,78.73,47.4,84.31c-4.23,4.13-3.19,10.17,4.4,7.75,5.16-1.65,7.13-6.76,7.89-12C51,73.66,61.21,63.8,61.21,63.8A57.49,57.49,0,0,0,69,68a57.27,57.27,0,0,0,8.41,2.76s0,14-10.5,12.37C63.82,87.18,61.6,92,63.67,96.86c3.55,8.32,9.19,4.28,9.1-1.88-.14-8.88,7.2-14,9.14-22.72S77.8,59.71,73.38,57.82Z"></path><path class="gr4" d="M49.63,81.38a27.32,27.32,0,0,0,2.54-6.49c-.73-.7-1.48-1.39-2.17-2.13a10.49,10.49,0,0,1-2.92-4.94,5.51,5.51,0,0,1-.16-3,22.9,22.9,0,0,1,1.36-3.56c.39-.89,2.8-.75,3.35-2.51.5-1.59,0-3-2.06-3.87a9.64,9.64,0,0,0-5.15-.43,2.77,2.77,0,0,0-2.16,3.62c1,2,3.08,1.69,1.82,3.12-1.41,1.61-3.29,4.28-3.46,6.49a10.34,10.34,0,0,0,1.17,4.12,20.59,20.59,0,0,0,2.62,4.43A28.7,28.7,0,0,0,49.63,81.38Z"></path><path class="gr5" d="M52.23,72.39a3.1,3.1,0,0,0,.54.28,40.71,40.71,0,0,1,3.41-9.57A41.37,41.37,0,0,1,50,65.45C48.68,65.57,47.72,69.4,52.23,72.39Z"></path><path class="gr6" d="M83.38,79.69a31.49,31.49,0,0,1-2.19-5A45.06,45.06,0,0,1,77,82.9C82.13,84,84.18,80.7,83.38,79.69Z"></path><path class="gr7" d="M57.65,78.09c.14.19.29.37.45.55C57.94,78.46,57.79,78.28,57.65,78.09Z"></path><path class="gr8" d="M58.77,79.3c-.2-.18-.39-.36-.56-.54C58.38,78.94,58.57,79.12,58.77,79.3Z"></path><path class="gr9" d="M57.18,77.4a4.53,4.53,0,0,0,.3.46A4.53,4.53,0,0,1,57.18,77.4Z"></path><path class="gr10" d="M59,79.47c.23.2.47.4.73.59C59.43,79.87,59.19,79.67,59,79.47Z"></path><path class="gr11" d="M56.63,76.26h0l0,.1Z"></path><path class="gr12" d="M63.67,96.86c-2.07-4.85.15-9.68,3.26-13.77h0a16.25,16.25,0,0,1-3.87-1.16,16.93,16.93,0,0,1-3.37-1.87c-.76,5.24-2.73,10.35-7.89,12a11.42,11.42,0,0,1-2.3.5c-.32,2-.81,4.14-1.35,6.15-.21.75-.42,1.48-.64,2.18a38.18,38.18,0,0,0,8.57,2.82c7.64,1.9,13.79,1,14.8.56,0-.41,0-.82,0-1.25,0-.91.11-1.86.19-2.81C69.19,102.45,66,102.28,63.67,96.86Z"></path><path class="gr13" d="M70.91,82.9l.1,0Z"></path><path class="gr14" d="M69.06,83.22l.16,0Z"></path><path class="gr15" d="M56.79,76.66a4.11,4.11,0,0,0,.21.42A4.11,4.11,0,0,1,56.79,76.66Z"></path><path class="gr16" d="M68.49,83.23h0Z"></path><path class="gr17" d="M77.43,70.72A57.27,57.27,0,0,1,69,68a57.49,57.49,0,0,1-7.81-4.16s-12.5,12,1.85,18.13S77.43,70.72,77.43,70.72Z"></path><g class="mask"><path class="bg1" d="M111.46,55.37,75.11,38.93a22,22,0,0,0,2.09-9.38,21.11,21.11,0,0,0-.12-2.26l26.85-3.11L88.65,8.09,73.52,17.35A22,22,0,0,0,39.93,13.6L34.68,8l-4.55,3.24,7.18,5.36a21.93,21.93,0,0,0-4.15,11.27l-14.9-1.39-5.19,9.75,20.32-3.05a21.94,21.94,0,0,0,4.44,10.05l-27.36,21L16.7,82,42.22,47.42a22,22,0,0,0,29-2.8l34.84,31.86Z"></path></g></g></svg>