<?xml-stylesheet href="main.css" type="text/css"?>
<svg class="special-icon-svg special-icon7-svg" xmlns="http://www.w3.org/2000/svg" aria-labelledby="special-icon7-svg-title-3d6db913-7523-4fa8-89bf-7c58a963f440" viewBox="0 0 107.96 110.21"><g><title id="special-icon7-svg-title-3d6db913-7523-4fa8-89bf-7c58a963f440">Specials used</title><rect class="area" width="107.96" height="107.96" rx="29.84" ry="29.84"></rect><path class="bg1" d="M53.33 66.07a2.29 2.29 0 0 0 .77-4.44l-46-16.4a2.29 2.29 0 1 0-1.53 4.31l46 16.4a2.28 2.28 0 0 0 .76.13z"></path><path class="gr1" d="M84 28.62h4.66A12.38 12.38 0 0 1 101 41v18.81A11.19 11.19 0 0 1 89.8 71h-7a11.19 11.19 0 0 1-11.22-11.19V41A12.38 12.38 0 0 1 84 28.62z" transform="rotate(-168.23 86.283 49.814)"></path><path class="bg1" d="M70.61 53.29l.85-4.09c-.81 5.8 4.86 9.58 10.65 10.8l3.76.73c5.91 1.23 12.79.75 14.19-5.09l-1 4.81c-1.4 5.84-8.28 6.32-14.19 5.09l-3.76-.73c-6-1.27-11.76-5.49-10.5-11.52z"></path><path class="gr2" d="M40 58.73a131.41 131.41 0 0 1 13.12-2.32c1.92-.21 3.6 0 4.56 1.1a3.91 3.91 0 0 1 .74 3.44l3.31 1.14a6.21 6.21 0 0 0-1.14-6c-1.61-1.87-5.11-2.66-8.09-2.35-6.26.67-13.17 2.26-13.3 2.26z"></path><path class="gr3" d="M39.59 58.63a93.3 93.3 0 0 0 8.31 11.11 4.69 4.69 0 0 0 4 1.74 4.5 4.5 0 0 0 3-2.27l3.29 1A7.66 7.66 0 0 1 53 73.89a7.17 7.17 0 0 1-6.93-2.35 111.56 111.56 0 0 1-8.84-11.34z"></path><path class="gr4" d="M83 71.08l6.68 3.1c2.26 1 2.8 3.45 2.75 6.26 0 2.5-.93 4.81-2.34 5-1.14.18-1.65-1.14-1.66-3.67 0-.93.15-3.73-1.44-4.32-2-.73-4.13-1.42-6.61-2.09z"></path><path class="gr5" d="M60.1 68.73l4.13 1.48 1.99-4.41-4.14-1.56-1.98 4.49z"></path><path class="gr6" d="M29.7 58.56l24.44 8.17 1.92-4.7-24.4-9.09-1.96 5.62z"></path><path class="gr7" d="M52.62 69.79l6.19 2.14 4.86-11.02-6.25-2.42-4.8 11.3z"></path><path class="gr8" d="M29.25 71a23.56 23.56 0 0 1 .14-16 22.07 22.07 0 0 1 9.43-12.19 30.87 30.87 0 0 1 4.09 3.33 19.54 19.54 0 0 0-8.59 11 23.23 23.23 0 0 0 .45 14.7 34.55 34.55 0 0 1-5.52-.84z"></path><path class="gr9" d="M66.9 64.63a2 2 0 0 0-1.61 1.21L58 82.16c-1.54 3.45-1 6 2 6.82l11 3.28a6 6 0 0 0 6.18-3c1.22-2.35 1.27-6.41 2.15-8.13a23.16 23.16 0 0 1 3.15-4 7 7 0 0 0 1.11-1.57l1.65-3.21a1.28 1.28 0 0 0-.68-1.78l-1.67-.64L70.1 65a6.72 6.72 0 0 0-3.2-.37zm1.2 8l9.83 3.08a24.17 24.17 0 0 0-3.32 4.74c-1.22 2.44-.65 4.22-1.25 5.65a2.55 2.55 0 0 1-3 1.63l-6.18-2c-1.16-.34-1.84-1-1-2.95z"></path></g></svg>