<svg viewBox="0 0 128 128" xml:space="preserve" xmlns="http://www.w3.org/2000/svg"><defs><linearGradient id="a" x1="13.101" x2="114.9" y1="-64" y2="-64" gradientUnits="userSpaceOnUse"><stop stop-color="#eb7258" offset="0"/><stop stop-color="#ac5341" offset="1"/></linearGradient><linearGradient id="e" x1="73.629" x2="93.549" y1="-25.502" y2="-103.49" gradientUnits="userSpaceOnUse"><stop stop-color="#3f1e18" offset="0"/><stop stop-color="#51271f" stop-opacity=".421" offset="1"/></linearGradient><linearGradient id="b" x1="43.134" x2="49.212" y1="36.009" y2="45.558" gradientTransform="matrix(8.5638 0 0 7.8638 -325.88 -248.07)" gradientUnits="userSpaceOnUse"><stop stop-color="#6d342a" offset="0"/><stop stop-color="#4b231c" offset="1"/></linearGradient><radialGradient id="c" cx="64" cy="-64" r="48.304" gradientTransform="matrix(1.0682 0 0 1.0634 -4.367 4.058)" gradientUnits="userSpaceOnUse"><stop stop-color="#ccc" stop-opacity="0" offset=".892"/><stop stop-color="#d4d4d4" offset="1"/></radialGradient><radialGradient id="d" cx="64" cy="-64" r="48.304" gradientTransform="matrix(1.0749 0 0 1.0568 -4.795 3.638)" gradientUnits="userSpaceOnUse"><stop stop-color="#fff" stop-opacity="0" offset=".954"/><stop stop-color="#fff" stop-opacity=".432" offset="1"/></radialGradient><filter id="f" x="-.059" y="-.025" width="1.119" height="1.051" color-interpolation-filters="sRGB"><feGaussianBlur result="blur" stdDeviation="1.004"/></filter></defs><g transform="translate(-3.288 -3.288) scale(1.0514)"><circle transform="rotate(90)" cx="64" cy="-64" r="50.899" fill="url(#a)"/><path d="M87.978 66.718c9.763-6.04 8.221-17.835 8.118-18.213-1.85-12.268-11.613-17.08-20.759-18.779-11.407-2.076-29.699-1.038-38.126-.377-.308 10.003 0 22.553.103 26.894 15.826-5.38 17.573 4.246 17.676 4.529 1.336 6.7-8.015 9.53-16.956 8.021l.103 6.511c7.296-1.604 16.442-.188 16.751 5.568.411 7.55-7.913 8.304-16.751 6.417-.103 4.152 0 8.21 0 9.908 8.735 1.321 27.13 2.076 27.13 2.076 14.49 1.227 24.561-2.359 29.494-11.7 5.036-9.343 1.233-17.742-6.782-20.856z" fill="url(#b)" style="shape-inside:url(#rect244);white-space:pre"/><ellipse transform="rotate(90)" cx="64" cy="-64" rx="51.6" ry="51.366" fill="url(#c)" style="mix-blend-mode:overlay"/><ellipse transform="rotate(90)" cx="64" cy="-64" rx="51.923" ry="51.05" fill="url(#d)" style="mix-blend-mode:luminosity"/><path transform="rotate(89.024 -1.49 -.09)" d="M71.494-16.465A48.126 48.126 0 0 0 112.127-64a48.126 48.126 0 0 0-40.633-47.535z" fill="url(#e)" filter="url(#f)" opacity=".326"/><path d="M64 3.127C30.428 3.127 3.127 30.428 3.127 64S30.428 124.873 64 124.873 124.873 97.572 124.873 64 97.572 3.127 64 3.127zm0 8c29.248 0 52.873 23.625 52.873 52.873S93.248 116.873 64 116.873 11.127 93.248 11.127 64 34.752 11.127 64 11.127z" color="#000" fill="#fff" style="-inkscape-stroke:none;paint-order:stroke fill markers"/><path d="M64 7.127A56.873 56.873 0 0 0 7.127 64 56.873 56.873 0 0 0 64 120.873 56.873 56.873 0 0 0 120.873 64 56.873 56.873 0 0 0 64 7.127zm0 5.975A50.899 50.899 0 0 1 114.898 64 50.899 50.899 0 0 1 64 114.898 50.899 50.899 0 0 1 13.102 64 50.899 50.899 0 0 1 64 13.102z" color="#000" fill="#692913" /></g></svg>