<svg viewBox="0 0 128 128" xml:space="preserve" xmlns="http://www.w3.org/2000/svg"><defs><linearGradient id="a" x1="13.101" x2="114.9" y1="-64" y2="-64" gradientUnits="userSpaceOnUse"><stop stop-color="#f3e64a" offset="0"/><stop stop-color="#e2b405" offset="1"/></linearGradient><linearGradient id="e" x1="70.984" x2="88.639" y1="-23.39" y2="-97.925" gradientUnits="userSpaceOnUse"><stop stop-color="#e16a16" offset="0"/><stop stop-color="#eb8014" stop-opacity=".415" offset="1"/></linearGradient><linearGradient id="b" x1="52.493" x2="80.947" y1="33.175" y2="99.585" gradientTransform="translate(-1.513)" gradientUnits="userSpaceOnUse"><stop stop-color="#c98413" offset="0"/><stop stop-color="#b74e00" offset="1"/></linearGradient><radialGradient id="c" cx="64" cy="-64" r="48.304" gradientTransform="matrix(1.0682 0 0 1.0634 -4.367 4.058)" gradientUnits="userSpaceOnUse"><stop stop-color="#ccc" stop-opacity="0" offset=".892"/><stop stop-color="#d4d4d4" offset="1"/></radialGradient><radialGradient id="d" cx="64" cy="-64" r="48.304" gradientTransform="matrix(1.0749 0 0 1.0568 -4.795 3.638)" gradientUnits="userSpaceOnUse"><stop stop-color="#fff" stop-opacity="0" offset=".954"/><stop stop-color="#fff" stop-opacity=".432" offset="1"/></radialGradient><filter id="f" x="-.059" y="-.025" width="1.119" height="1.051" color-interpolation-filters="sRGB"><feGaussianBlur result="blur" stdDeviation="1.004"/></filter></defs><g transform="translate(-3.288 -3.288) scale(1.0514)"><circle transform="rotate(90)" cx="64" cy="-64" r="50.899" fill="url(#a)"/><path d="M44.995 28.584s-1.022 16.073-.372 28.336c0 0 3.81.465 6.41.279 0 0 .094 24.713.558 41.807 0 0 14.68.65 28.894.464 0 0 .186-34.189 0-70.7 0 0-16.816-.465-35.49-.187z" fill="url(#b)" style="shape-inside:url(#rect77399);white-space:pre"/><ellipse transform="rotate(90)" cx="64" cy="-64" rx="51.6" ry="51.366" fill="url(#c)" style="mix-blend-mode:overlay"/><ellipse transform="rotate(90)" cx="64" cy="-64" rx="51.923" ry="51.05" fill="url(#d)" style="mix-blend-mode:luminosity"/><path transform="rotate(89.024 -1.49 -.09)" d="M71.494-16.465A48.126 48.126 0 0 0 112.127-64a48.126 48.126 0 0 0-40.633-47.535z" fill="url(#e)" filter="url(#f)" opacity=".434"/><path d="M64 3.127C30.428 3.127 3.127 30.428 3.127 64S30.428 124.873 64 124.873 124.873 97.572 124.873 64 97.572 3.127 64 3.127zm0 8c29.248 0 52.873 23.625 52.873 52.873S93.248 116.873 64 116.873 11.127 93.248 11.127 64 34.752 11.127 64 11.127z" color="#000" fill="#fff" style="-inkscape-stroke:none;paint-order:stroke fill markers"/><path d="M64 7.127A56.873 56.873 0 0 0 7.127 64 56.873 56.873 0 0 0 64 120.873 56.873 56.873 0 0 0 120.873 64 56.873 56.873 0 0 0 64 7.127zm0 5.975A50.899 50.899 0 0 1 114.898 64 50.899 50.899 0 0 1 64 114.898 50.899 50.899 0 0 1 13.102 64 50.899 50.899 0 0 1 64 13.102z" color="#000" fill="#9d3801"/></g></svg>