<svg viewBox="0 0 128 128" xml:space="preserve" xmlns="http://www.w3.org/2000/svg"><defs><linearGradient id="a" x1="13.101" x2="114.9" y1="-64" y2="-64" gradientUnits="userSpaceOnUse"><stop stop-color="#a2b5ca" offset="0"/><stop stop-color="#7c94b3" offset="1"/></linearGradient><linearGradient id="e" x1="79.345" x2="83.332" y1="-18.74" y2="-106.86" gradientUnits="userSpaceOnUse"><stop stop-color="#1f3e64" offset="0"/><stop stop-color="#14407b" stop-opacity=".56" offset="1"/></linearGradient><linearGradient id="b" x1="44.567" x2="97.969" y1="39.61" y2="111.55" gradientTransform="translate(2.082 -.139)" gradientUnits="userSpaceOnUse"><stop stop-color="#4e6284" offset="0"/><stop stop-color="#35435d" offset="1"/></linearGradient><radialGradient id="c" cx="64" cy="-64" r="48.304" gradientTransform="matrix(1.0684 0 0 1.0635 -4.383 4.06)" gradientUnits="userSpaceOnUse"><stop stop-color="#ccc" stop-opacity="0" offset=".892"/><stop stop-color="#1985aa" offset="1"/></radialGradient><radialGradient id="d" cx="64" cy="-64" r="48.304" gradientTransform="matrix(1.0749 0 0 1.0568 -4.795 3.638)" gradientUnits="userSpaceOnUse"><stop stop-color="#fff" stop-opacity="0" offset=".939"/><stop stop-color="#fff" stop-opacity=".71" offset="1"/></radialGradient><filter id="f" x="-.059" y="-.025" width="1.119" height="1.051" color-interpolation-filters="sRGB"><feGaussianBlur result="blur" stdDeviation="1.004"/></filter></defs><g transform="translate(-3.288 -3.288) scale(1.0514)"><circle transform="rotate(90)" cx="64" cy="-64" r="50.899" fill="url(#a)"/><path d="M69.628 81.133c25.401-5.268 25.495-26.06 25.495-26.06 0-22.485-20.697-25.966-30.199-26.53-.188 0-19.662-1.129-27.659 2.164-.376 8.655-.188 23.896-.094 28.223 19.286-.47 20.603 8.09 20.697 8.843.658 7.432-10.443 13.077-20.697 15.335-.094 7.526-.094 13.735 0 15.993 22.579.47 48.168.188 53.436.094.376-6.962.188-13.453 0-15.993-7.056-.188-20.697.094-20.697.094z" fill="url(#b)"/><ellipse transform="rotate(90)" cx="63.993" cy="-64.007" rx="51.607" ry="51.373" fill="url(#c)" opacity=".346" style="mix-blend-mode:overlay"/><ellipse transform="rotate(90)" cx="64" cy="-64" rx="51.923" ry="51.05" fill="url(#d)" style="mix-blend-mode:luminosity"/><path transform="rotate(89.024 -1.49 -.09)" d="M71.494-16.465A48.126 48.126 0 0 0 112.127-64a48.126 48.126 0 0 0-40.633-47.535z" fill="url(#e)" filter="url(#f)" opacity=".291"/><path d="M64 3.127C30.428 3.127 3.127 30.428 3.127 64S30.428 124.873 64 124.873 124.873 97.572 124.873 64 97.572 3.127 64 3.127zm0 8c29.248 0 52.873 23.625 52.873 52.873S93.248 116.873 64 116.873 11.127 93.248 11.127 64 34.752 11.127 64 11.127z" color="#000" fill="#fff" style="-inkscape-stroke:none;paint-order:stroke fill markers"/><path d="M64 7.127A56.873 56.873 0 0 0 7.127 64 56.873 56.873 0 0 0 64 120.873 56.873 56.873 0 0 0 120.873 64 56.873 56.873 0 0 0 64 7.127zm0 5.975A50.899 50.899 0 0 1 114.898 64 50.899 50.899 0 0 1 64 114.898 50.899 50.899 0 0 1 13.102 64 50.899 50.899 0 0 1 64 13.102z" color="#000" fill="#4b536e" /></g></svg>