<?xml-stylesheet href="main.css" type="text/css"?>
<svg class="special-icon-svg special-icon4-svg" xmlns="http://www.w3.org/2000/svg" aria-labelledby="special-icon4-svg-title-55120449-e371-4b05-b639-493359286dad" viewBox="0 0 107.96 107.96"><g><title id="special-icon4-svg-title-55120449-e371-4b05-b639-493359286dad">Specials used</title><rect class="area" width="107.96" height="107.96" rx="29.84" ry="29.84"></rect><path class="bg1" d="M56.67 22.34s-21.5 8.76-21.5 21 7.28 19.36 21.5 19.36 21.5-7.12 21.5-19.36-21.5-21-21.5-21zM55.18 20.19s-4.72-3.06-2.86-10a12.7 12.7 0 0 1 6.25 0A6.28 6.28 0 0 1 62.46 13s-4.55 2.65-4.8 7.19-.83 1.66-2.48 0z"></path><path class="bg1" d="M52.32 21.62c0-1.49 1.39-2.59 4-2.57s3.71.83 3.94 2.84c.2 1.75-1.48 2.21-3.86 2.27s-4.07-.29-4.08-2.54z"></path><path class="gr3" d="M51.22 8.58c.6-1.38 3.23-1.74 7.25-.49s5.5 2.54 5 4.51c-.39 1.71-3.22 1.34-7 .26s-6.15-2.19-5.25-4.28z"></path><path class="gr4" d="M56.27 34.5c6.81 0 10.86-3 12.83-5-1.29-1-2.61-1.88-3.9-2.67a22.75 22.75 0 0 1-8.93 3.85 51.71 51.71 0 0 1-10.75 1.12 22.06 22.06 0 0 0 10.75 2.7z"></path><path class="gr5" d="M35.8 39.74c3.17 3.54 11 6.94 20.88 6.67a20.92 20.92 0 0 0 16.39-8.27c-1.94.79-9.8 4.61-18.64 3.72a39.52 39.52 0 0 1-16.89-5.62 10.58 10.58 0 0 0-1.74 3.5z"></path><path class="gr6" d="M57.17 57.9c8.13.55 16.75-2.27 19.57-6.23a22.75 22.75 0 0 0 1.41-8.08C76.68 47 71.44 53 57.31 53.72c-9.29.48-18.44-4.62-21.94-7.2.85 2.86 3 4.77 6.39 7.17 3.02 2.16 7.49 3.67 15.41 4.21z"></path><path class="bg1" d="M27 48.52S6.93 60.21 8.64 72.33s9.92 18.15 24 16.15S52.93 78.41 51.21 66.3 27 48.52 27 48.52zM25.21 46.6S20.1 44.23 21 37.1a12.7 12.7 0 0 1 6.19-.88 6.28 6.28 0 0 1 4.24 2.24s-4.13 3.26-3.74 7.79-.62 1.75-2.48.35z"></path><path class="bg1" d="M22.58 48.42c-.21-1.47 1-2.76 3.55-3.1s3.79.3 4.3 2.26c.44 1.7-1.16 2.39-3.5 2.79s-4.03.27-4.35-1.95z"></path><path class="gr7" d="M19.66 35.66c.4-1.45 3-2.17 7.11-1.51s5.8 1.74 5.63 3.76c-.15 1.75-3 1.78-6.88 1.24s-6.46-1.3-5.86-3.49z"></path><path class="gr8" d="M28.29 60.62c6.74-1 10.33-4.47 12-6.77-1.42-.79-2.85-1.49-4.23-2.1a22.75 22.75 0 0 1-8.3 5.06 51.71 51.71 0 0 1-10.49 2.65 22.06 22.06 0 0 0 11.02 1.16z"></path><path class="gr9" d="M8.76 68.67c3.64 3.06 11.83 5.33 21.61 3.68a20.92 20.92 0 0 0 15.07-10.49c-1.81 1.06-9.05 5.94-17.93 6.3A39.52 39.52 0 0 1 10 65a10.58 10.58 0 0 0-1.24 3.67z"></path><path class="gr10" d="M32.47 83.66c8.12-.59 16.26-4.59 18.5-8.91a22.75 22.75 0 0 0 .27-8.19c-1 3.54-5.33 10.24-19.22 12.95-9.13 1.78-18.9-2-22.73-4 1.25 2.71 3.68 4.3 7.33 6.2 3.29 1.65 7.93 2.53 15.85 1.95z"></path><path class="bg1" d="M81.73 60.54s-23.12 2.19-26.65 13.9 1.38 20.64 15 24.74 22.64-.62 26.17-12.34-14.52-26.3-14.52-26.3zM80.92 58.05s-3.64-4.29.15-10.4a12.7 12.7 0 0 1 6 1.8A6.28 6.28 0 0 1 90 53.26s-5.12 1.22-6.67 5.5-1.33 1.36-2.41-.71z"></path><path class="bg1" d="M77.77 58.6c.43-1.43 2.08-2.08 4.53-1.32s3.32 1.86 3 3.86c-.31 1.73-2.06 1.68-4.35 1.06s-3.82-1.45-3.18-3.6z"></path><path class="gr11" d="M80.48 45.79c1-1.15 3.6-.73 7.08 1.62s4.53 4 3.53 5.78c-.87 1.53-3.47.35-6.76-1.77s-5.33-3.89-3.85-5.63z"></path><path class="gr12" d="M77.84 72.07c6.52 2 11.26.28 13.74-1.11-1-1.31-2-2.55-3-3.69A22.75 22.75 0 0 1 79 68.39a51.71 51.71 0 0 1-10.63-2 22.06 22.06 0 0 0 9.47 5.68z"></path><path class="gr13" d="M56.72 71.18c2 4.3 8.5 9.81 18.07 12.41a20.92 20.92 0 0 0 18.09-3.19c-2.09.2-10.72 1.6-18.88-1.82a39.52 39.52 0 0 1-14.59-10.25 10.58 10.58 0 0 0-2.69 2.85z"></path><path class="gr14" d="M71.95 94.73c7.62 2.87 16.69 2.66 20.54-.32a22.75 22.75 0 0 0 3.68-7.32c-2.38 2.79-9.14 7.06-22.88 3.68C64.25 88.55 57 81 54.36 77.55c0 3 1.53 5.45 4.05 8.71 2.27 2.93 6.11 5.67 13.54 8.47z"></path></g></svg>