<?xml-stylesheet href="main.css" type="text/css"?>
<svg class="killed-icon-svg" xmlns="http://www.w3.org/2000/svg" aria-labelledby="killed-icon-svg-title" viewBox="0 0 38.04 20"><g><path class="bg1" d="M17,5.76c-1.36-.46-2.75.6-4.3,1.08-1,.31-1.19-.32-.73-.88.71-.89,2.26-1.44,3-2.31,1.2-1.41.84-3.21-1.52-3.34a3.59,3.59,0,0,0-3,1.31C9.41,3.31,10,3.92,9.37,5.31c-.22.5-.75,1.13-1.43.77-.37-.2-.37-.64-.06-1C9,3.91,9.63,1.78,7.09,1.75a3.58,3.58,0,0,0-3,2.07A5.69,5.69,0,0,0,4,6.77c.33,1.73.8,3.28-2.5,4.55-2.27.88-1.78,1.71.12,1.1,2.9-.89,4.29.11,5,1.46s.77,2.68,2.26,3.58a2.93,2.93,0,0,0,2.91.07,1.58,1.58,0,0,0,.54-2.7c-.68-.65-2.55-1.41-2-1.94s1.73-.5,2.9.37a3,3,0,0,0,3.12.43,1.77,1.77,0,0,0,.55-2.79,3.14,3.14,0,0,0-2.9-.83c-.84.15-1.91.36-1.94-.31,0-.36.51-.64,1-.72,1.42-.26,3,.68,4.15,0A1.77,1.77,0,0,0,17,5.76Z"></path><path class="white" d="M30.32,17.69a.84.84,0,0,1-.38-1.5,2.88,2.88,0,0,1,.34-.27l-2.73-4.45-5.82-.83h0a.85.85,0,0,1-1.54.21c-.4-.53-.08-1.07-.61-2.38a2.43,2.43,0,0,0-.76,4.27,3.56,3.56,0,0,0,3.06.74,2.6,2.6,0,0,0-1.43,1.69c1.22.92,2.43,1.62,4,.24l.05-.08-.05.08c-.68,2,.42,2.87,1.73,3.65a2.64,2.64,0,0,0,1-2,3.59,3.59,0,0,0,1.83,2.56,2.43,2.43,0,0,0,3.67-2.3C31.34,17.37,31,17.87,30.32,17.69Z"></path><path class="white" d="M33.62,1.87h0C29.29-1,24.2-.58,22.41,3.16A7.48,7.48,0,0,0,21.79,8l4,.55L24,5.63l2-1.87L29.13,9,35,9.85l-1,2.53L30.89,12,32.75,15a7.26,7.26,0,0,0,3.88-2.3C39.43,9.69,37.89,4.82,33.62,1.87Z"></path><path class="bg1" d="M29.36,7c1.95,0,2-2.5,1.83-4.12-.14-1.39.55-1.73,1-1.77-3.94-1.9-8.13-1.24-9.74,2,.71.21.93.94,2.29,1.06,2,.18,1.5-1.36,2.28-1.42S26.57,7,29.36,7Z"></path></g></svg>