<?xml-stylesheet href="main.css" type="text/css"?>
<svg class="special-icon-svg special-icon1-svg" xmlns="http://www.w3.org/2000/svg" aria-labelledby="special-icon1-svg-title-67e4926b-4d73-4e10-947f-a68897250efd" viewBox="0 0 107.96 107.96"><g><title id="special-icon1-svg-title-67e4926b-4d73-4e10-947f-a68897250efd">Specials used</title><rect class="area" width="107.96" height="107.96" rx="29.84" ry="29.84"></rect><path class="bg1" d="M77.82 60.67c1.33-1.78 3.4-6.08 3-7.59-.82-2.83-7.28-9.8-12.89-12.08a13.69 13.69 0 0 0-4.93-.74c-.5 0-1 0-1.48.05a23 23 0 0 0-3.16.4 8.74 8.74 0 0 1 .11-4.35h-9a8.73 8.73 0 0 1 .11 4.35 22.51 22.51 0 0 0-2.93-.38c-.77-.05-1.56-.08-2.36-.06A12.79 12.79 0 0 0 40 41c-5.6 2.27-12 9.24-12.84 12.06-.44 1.52 1.63 5.82 3 7.59 1.17 1.56-.91 1.09-2.1 3A2.83 2.83 0 0 0 30 67.56a9.71 9.71 0 0 0 5.28 0c2.19-.76 2.8-2.13 2.41-3.78-.42-1.84-2.89-1.88-3.22-2.82-1.19-3.4-2-5.95 0-7.66 1.69-1.43 4.48-2.71 6.49-2.07l.22.06c1.65.66 1.63 7.44 1 13.15a49.23 49.23 0 0 1-.9 5.78c-.22.92-.42 1.79-.61 2.63-1.07 4.71-1.73 8.17-2 9.5-.55 2.45-1 7.71-1.44 8.63-.32.61-4.68.36-5.66 1.52-1.32 1.55.55 2.65 3.7 3.57a27.52 27.52 0 0 0 7 .82c2.07-.1 1.59-3.14 1.33-3.67-.69-1.38 1.52-6.85 2.72-10.41a38.8 38.8 0 0 1 3.46-7.9c1.16-1.91 2.59-3.39 4.22-3.39s2.93 1.34 4.09 3.12a37.84 37.84 0 0 1 3.6 8.12c1.2 3.56 3.41 9 2.72 10.41-.26.53-.74 3.58 1.33 3.67a27.53 27.53 0 0 0 7-.82c3.15-.92 5-2 3.7-3.57-1-1.16-5.34-.9-5.66-1.52-.48-.92-.89-6.18-1.44-8.63-.3-1.35-1-4.92-2.09-9.78-.17-.76-.35-1.54-.54-2.35a46.67 46.67 0 0 1-.84-5.13c-.62-5.4-.73-12 .61-13.53a1 1 0 0 1 .35-.27c2-.81 5 .54 6.71 2 2 1.71 1.19 4.25 0 7.66-.33.94-2.8 1-3.22 2.82-.38 1.66.23 3 2.41 3.78a9.71 9.71 0 0 0 5.28 0 2.83 2.83 0 0 0 1.91-3.85c-1.19-1.89-3.27-1.42-2.1-2.98zm-7.7-36.8s6.07 6.62 7.51 7.4.66 5.63-6 6.85l-1.51-14.25zm-32.28 0s-6.07 6.62-7.51 7.4-.66 5.63 6 6.85l1.51-14.25zM71.47 54C67 43.86 72.9 34.45 70.84 23.47S60 11.11 54 11.11s-14.76 1.38-16.82 12.36S41 45 37.21 54.13c-2.82 6.8 1.32 13.21 8.83 6.72 9.59-8.28.28-25.07-1.93-31.48s5.56-3.7 9.92-3.7 12.14-2.7 9.92 3.7S53 51.93 62 60.56c8.1 7.78 12.59.44 9.47-6.56zM65 23.9a72 72 0 0 1-11 .95 72 72 0 0 1-11-.95s-8.44 19.86 11 19.86L65 23.9z"></path><path class="white" d="M67.28 31.36c-1.38-.08-3.83-.47-4.51-1.15-.86-.86-1.44-3.29-1.44-6a.5.5 0 0 0-1 0c0 2.75-.58 5.18-1.44 6-.68.68-3.1 1.06-4.48 1.15-1.39-.09-3.81-.47-4.48-1.15-.86-.86-1.44-3.29-1.44-6a.5.5 0 0 0-1 0c0 2.75-.58 5.18-1.44 6-.68.68-3.13 1.07-4.52 1.15a.5.5 0 0 0 0 1c1.38.08 3.83.45 4.51 1.13.86.86 1.44 3.29 1.44 6a.5.5 0 0 0 1 0c0-2.75.58-5.18 1.44-6 .68-.68 3.1-1.05 4.48-1.13 1.39.08 3.81.45 4.48 1.13.86.86 1.44 3.29 1.44 6a.5.5 0 0 0 1 0c0-2.75.58-5.18 1.44-6 .68-.68 3.13-1.06 4.51-1.13a.5.5 0 0 0 0-1z"></path></g></svg>