<?xml-stylesheet href="main.css" type="text/css"?>
<svg class="special-icon-svg special-icon8-svg" xmlns="http://www.w3.org/2000/svg" aria-labelledby="special-icon9-svg-title-a4bcf765-7e15-472f-ae61-fad5ba99e0fb" viewBox="0 0 107.96 107.96"><g><title id="special-icon9-svg-title-a4bcf765-7e15-472f-ae61-fad5ba99e0fb">Specials used</title><rect class="area" width="107.96" height="107.96" rx="29.84" ry="29.84"></rect><path class="bg1" d="M16.687 29.708l50.548 4.005-.963 12.153-50.548-4.005z"></path><path class="gr2" d="M14.63 28.05h1.32a1.86 1.86 0 0 1 1.86 1.86v11.54a1.86 1.86 0 0 1-1.86 1.86h-1.32a5.38 5.38 0 0 1-5.38-5.38v-4.5a5.38 5.38 0 0 1 5.38-5.38z" transform="rotate(2.66 13.541 35.67)"></path><path class="gr3" d="M73.55 88.6c-1-2.12-1.89-2.62-4.88-4.56-.38-.24-.77-.48-1.18-.72-3.16-1.86-6.92-3.51-8.14-4.5s-.4-2 .67-3.2c2-2.25 4.64-2.24 7.2-3a63.12 63.12 0 0 0-10.74-6.85c-1 .85-2.2 1.83-3.43 3-2.63 2.51-3.8 4.7-4 6.63-.35 2.72.19 5.67 2.92 7.68 4.3 3.18 6.55 3.32 9.46 4.84.35.18.71.38 1.08.62 1.81 1.12 1.28 3-.16 5.11s-3.2 2.07-2.26 4.42c.67 1.68 4 2.15 5.73.37a18 18 0 0 1 5.05-3.81c1.47-.73 4.19-2.68 2.68-6.03z"></path><path class="gr4" d="M61.89 39.61c-1.42-2-1.17-3 1.91-5.34 2.27-1.75 8-4.79 6.21-11.46s-8.84-12.44-16.42-10.38c-7.17 1.94-9.29 3.43-10.59 7.8a9.11 9.11 0 0 1-2.37 4.23c-1.4 1.47-1.67 3.51.09 6.4 1.47 2.42 6.89 4.93 10.34 4.58 1.76-.18 3.78.66 4.23 2a6.31 6.31 0 0 1 0 4.89c2.71.82 4.71-.73 6.6-2.72z"></path><path class="gr6" d="M72.22 54.29C70.9 50.51 68 47 64 42.19c-.87-1.06-1.69-2.56-2.19-3.27-1.85 2-4.27 4-7 3.16-.24.59 0 1.51-.46 2.24-1.16 1.94-2.11 5.93 1.08 10.83 1.26 1.94 5.05 5.64 3.85 8-.34.66-2.05 1.56-3.42 2.7 4.42 2.2 6.88 5.07 9.5 8.14a14.4 14.4 0 0 0 8-6.71c1.98-4.11.26-8.92-1.14-12.99z"></path><path class="gr7" d="M57.25 43c2.47-2.28 7.36-.38 7.33 3.31s-3.27 5.4-6.34 7.07-5.05 2.82-7.51 4-3.47 3.28-8.23-1.43-5.06-6.36-9.37-5.66c-3 .49-4.73-2.16-5.45-3.69-1.58-3.42 2.19-7.63 4.33-9s5.15-.26 7.16 2.75c1.21 1.8.82 2.66.26 3.72-.91 1.74 1 3.3 3.8 5s3.6 2.77 6.29 1.07C52.65 48.06 54 46 57.25 43z"></path><path class="gr8" d="M83.9 85c-5.55-2.16-7.33-7.22-5.29-15l.17-.67a10.7 10.7 0 0 0-2.57-9.65c-2.63-3.14-8.73-10.79-9-11.11l7-5.62c.06.08 6.29 7.88 8.85 10.95a19.72 19.72 0 0 1 4.43 17.52c-.06.25-.13.54-.22.85-.76 2.92-.68 3.89-.49 4.19a1.3 1.3 0 0 0 .41.21 1.77 1.77 0 0 0 1.44.1C89.29 76.35 90 75 90.29 73a20 20 0 0 0-1.67-9.2l6.86-3c.42.84 4 7.54 3.22 14.12-.57 4.65-2.16 7.61-5.31 9.53a10.48 10.48 0 0 1-9.25.67z"></path><path class="bg1" d="M97.36 48.7c-2.6-5.24-5.37-8-6-10.26-.85-3.27 0-1.93-1.32-7-1.57-5.85-5-6.89-10.73-4.91h-.24c-5.66 2.15-7.63 5.15-5.08 10.65 2.19 4.73 2 3.14 3.46 6.2 1 2.12.65 6 2 11.7 1.14 4.78 5.29 3.75 7.07 6.45C88 63.73 88.7 65.2 92 64l1.38-.5c3.12-1.13 2.95-2.81 2.66-5.31-.34-3.19 3.5-5.09 1.32-9.49zm-28.729-1.702l4.592-1.622 22.334 63.247-4.592 1.622zm.179-13.378c-.69-1.76 1-2.71 2.72-6.53 1.63-3.54.52-9-4.87-13.7A16.26 16.26 0 0 0 50.45 10c-4.65 1.55-5.44 3.44-6.56 5.76 0 0 3.08-.48 10.07 1.38a5.75 5.75 0 0 0 .2-2.44c2.93 9-2.46 17.37-5.9 24.64-2.14 4.56-2.26 11.78 3.11 10.4C57 48.32 60.7 36.9 60.51 33.83a10.28 10.28 0 0 0 3.79 3c1.97.9 6.24 1.17 4.51-3.21z"></path><path class="gr9" d="M75.06 15.07c-6.77 2.46-8.47 4.7-7.59 7.09s3.19 7.36 3.56 8.18c1 2.23 3.37 1.45 8.52-.42l1.58-.57c4.88-1.77 7.46-2.77 6.81-5.13-.24-.87-1.7-6.3-2.51-8.56s-3.59-3.05-10.37-.59z"></path><path class="gr10" d="M66.7 35.11c3.87-1.33 6.71 1.53 7.76 4.5s1.54 8.22 2.11 10.53A9.36 9.36 0 0 1 69.71 53s-4.25-5.95-5.8-8.71-1.72-7.62 2.79-9.18z"></path></g></svg>