<?xml-stylesheet href="main.css" type="text/css"?>
<svg class="special-icon-svg special-icon0-svg" xmlns="http://www.w3.org/2000/svg" aria-labelledby="special-icon0-svg-title-0e502ea9-8b6b-4d7f-b33a-faf5c982de89" viewBox="0 0 107.96 107.96"><g><title id="special-icon0-svg-title-0e502ea9-8b6b-4d7f-b33a-faf5c982de89">Specials used</title><rect class="area" width="107.96" height="107.96" rx="29.84" ry="29.84"></rect><path class="gr1" d="M38.63 81.45s4.44 5.13 1.18 9.51c-2.36 3.17-1.2 4.38 2.11 4.47 4 .11 6.64.53 5.91-3.08-.93-4.67 2.09-10 2.09-10z"></path><path class="gr2" d="M76.24 72l-8.86-1a61.94 61.94 0 0 1 1.72 12.48l4.54.53a6.85 6.85 0 0 0 7.26-5.32A5.44 5.44 0 0 0 76.24 72z"></path><path class="gr3" d="M76.93 70.82a58 58 0 0 0-5.42-5 14.65 14.65 0 0 0-6.46-3s.4.24-.68 0a9 9 0 0 1 3.54 1.88c2.34 2 2.57 3.48 4.48 5.19s1.75 3 1.18 5.31-2.1 9.33-3 11.17c-.65 1.35-1.68 2.63-2.87 2.91 1.62.17 3.31.13 3.4.14 2 .2 3.2-.69 4.08-2.51s2.34-8.55 2.9-10.8.62-3.48-1.15-5.29z"></path><path class="gr4" d="M62.8 65c.65-3.26 2.75-2.28 4.55-.9a47.82 47.82 0 0 1 5.08 5.09c1.47 1.53 2.45 3 1.32 7s-1.93 6.49-2.7 9.12c-.57 1.94-1.92 5.44-4.18 3.47a53.65 53.65 0 0 1-5.39-5.79c-1.32-1.44-3.08-2.99-2.14-6.39s2.9-8.79 3.46-11.6z"></path><path class="bg1" d="M64.32 83.12l-29.91-4c-3.59-.49-6.06-3.48-5.48-6.67.58-3.18 4-5.38 7.58-4.9l29.91 4C70 72 71.49 74.8 70.91 78c-.58 3.16-3 5.61-6.59 5.12z"></path><path class="gr5" d="M49.92 86.81c1.81.42 3-.45 3.93-2.36s2.58-10.57 3.31-13 1-3.81-.56-5.84-2.3-3.2-4.21-5.61-3.55-2.65-5.39-3.46S18.57 54 17.59 53.5s-2.71-.27-3.14.92l2.06 27.49a7.77 7.77 0 0 0 1.71 2c.78.49 31.27 2.8 31.7 2.9z"></path><path class="gr6" d="M14 55.6c.8-3.54 2.68-2.21 4.2-.56s4.55 4.27 5.79 5.85 1.79 3.84.58 8.14c-1.28 4.56-2.08 7.53-3 10.77-.61 2.11-2.25 5.78-4.11 3.4-2.36-3-4.5-5.62-5.39-7a7.88 7.88 0 0 1-1.33-7.13c.78-3.31 2.45-9.81 3.26-13.47z"></path><path class="bg1" d="M19.91 69.12c-.42 4.89-2.14 8.71-3.83 8.54s-2.72-4.28-2.3-9.18 2.14-8.71 3.83-8.54 2.72 4.29 2.3 9.18z"></path><rect class="gr7" x="41.07" y="37.21" width="60.79" height="12.14" rx="6.07" ry="6.07" transform="rotate(12.44 71.425 43.28)"></rect><path class="gr8" d="M93.31 57.37l-8.75-1.93c.91 4.39 2.4 8.78 3.37 13.17l2.77.61a6.09 6.09 0 0 0 7.23-4.62 6.09 6.09 0 0 0-4.62-7.23z"></path><path class="gr9" d="M97.55 40c-1.88-1.69-12.83-10.62-15.21-12.54a14.65 14.65 0 0 0-6.46-3s.4.24-.68 0a9 9 0 0 1 3.54 1.88c2.34 2 12.36 11 14.26 12.71s1.75 3 1.18 5.31S87.87 71 87 72.81c-.65 1.35-1.68 2.63-2.87 2.91 1.61.08 3.31.13 3.4.14 2 .2 3.2-.69 4.08-2.51s6.55-25.87 7.12-28.13.71-3.55-1.18-5.22z"></path><path class="gr10" d="M73.65 26.62c.65-3.26 2.75-2.28 4.55-.9S91.55 37 93.06 38.33s2.45 3 1.32 7-6.15 23.82-6.92 26.45c-.57 1.94-1.92 5.44-4.18 3.47C80.41 72.7 69.21 61.08 68.1 59.9 66.78 58.52 65 57 66 53.57s7.08-24.13 7.65-26.95z"></path><rect class="bg1" x="21.23" y="25.32" width="60.41" height="12.44" rx="6.22" ry="6.22" transform="rotate(12.44 51.436 31.531)"></rect><rect class="bg1" x="29.8" y="34.5" width="62.28" height="12.44" rx="6.22" ry="6.22" transform="rotate(12.44 60.932 40.71)"></rect><rect class="bg1" x="47.62" y="51.94" width="40.93" height="12.44" rx="6.22" ry="6.22" transform="rotate(12.44 68.076 58.128)"></rect><path class="gr11" d="M62.49 71.33c2 .2 3.2-.69 4.08-2.51S73.12 43 73.69 40.7s.72-3.54-1.16-5.24-10.8-10.55-13.11-12.55-4.14-2.07-6.21-2.63-26.94-5.87-28.07-6.23-3 0-3.35 1.13l8.1 48.61A7.76 7.76 0 0 0 32 65.46c.85.35 30 5.83 30.49 5.87z"></path><path class="gr12" d="M21.44 16.29c.65-3.26 2.85-2.41 4.55-.9S39.35 26.68 40.85 28s2.45 3 1.32 7S36 58.78 35.25 61.41c-.57 1.94-1.92 5.44-4.18 3.47C28.2 62.36 17 50.74 15.89 49.57c-1.31-1.38-3.07-2.95-2.13-6.33s7.12-24.13 7.68-26.95z"></path><ellipse class="bg1" cx="24.69" cy="27.05" rx="3.39" ry="8.09"></ellipse><ellipse class="bg1" cx="33.35" cy="35.15" rx="3.39" ry="8.09"></ellipse><ellipse class="bg1" cx="20.36" cy="43.24" rx="3.39" ry="8.09"></ellipse><ellipse class="bg1" cx="29.02" cy="51.89" rx="3.39" ry="8.09"></ellipse></g></svg>