<?xml-stylesheet href="main.css" type="text/css"?>
<svg class="special-icon-svg special-icon2-svg" xmlns="http://www.w3.org/2000/svg" aria-labelledby="special-icon2-svg-title-c97ff984-b48f-4343-9551-a51aab0c32d3" viewBox="0 0 107.96 107.96"><g><title id="special-icon2-svg-title-c97ff984-b48f-4343-9551-a51aab0c32d3">Spezialwaffeneinsätze</title><rect class="area" width="107.96" height="107.96" rx="29.84" ry="29.84"></rect><path class="gr2" d="M40.25,27,27,12.64,20.19,31l-6.6,19.36,20.06-4,20.07-4ZM17.15,47.49,22.45,32l5.29-15.53,10.8,12.35,10.8,12.35L33.25,44.31Z"></path><path class="bg1" d="M42.93,38.42,36.7,31.3l-6.27-7.16h0a1.3,1.3,0,0,0-2.31.46h0l-3.07,9-3.05,9a1.3,1.3,0,0,0,1.42,1.86l9.46-1.87,9.46-1.87a1.3,1.3,0,0,0,.6-2.26Z"></path><path class="gr4" d="M29.1,20.89l-1,.2a2.4,2.4,0,0,1-2.59-.9l-.77-1.53c-.62-1.24.21-2.78,2-3.13l1.65-.33c1.78-.35,3.1.76,3,2.15l-.17,1.72A2.47,2.47,0,0,1,29.1,20.89Z"></path><path class="gr5" d="M29.79,17.89l-3.46.68a3.59,3.59,0,0,1-3.65-2l-.32-.6c-1-1.92-.41-4.2,1.59-4.6l5.32-1.05c2-.4,3.43,1.48,3.22,3.64l-.07.68A3.59,3.59,0,0,1,29.79,17.89Z"></path><ellipse class="gr6" cx="26.86" cy="12.17" rx="4.9" ry="1.8" transform="translate(-1.85 5.44) rotate(-11.19)"></ellipse><path class="gr7" d="M17,43.53l.76.29a1.92,1.92,0,0,1,1.28,2l-.24,1.67a2.14,2.14,0,0,1-2.86,1.78l-1.26-.48a2.09,2.09,0,0,1-.91-3.21l1-1.4A2,2,0,0,1,17,43.53Z"></path><path class="gr8" d="M15,45.79l2.64,1c1,.38,1.66,1.78,1.46,3.37l-.09.67c-.27,2.12-1.8,3.81-3.32,3.23l-4-1.53c-1.52-.58-1.55-2.85-.34-4.62l.38-.56C12.59,46,14,45.41,15,45.79Z"></path><ellipse class="gr9" cx="14.14" cy="52.07" rx="1.8" ry="3.91" transform="translate(-39.56 46.85) rotate(-69.25)"></ellipse><path class="gr10" d="M48.38,37.31l-.59.55a1.92,1.92,0,0,0-.43,2.3l.86,1.45a2.14,2.14,0,0,0,3.33.56l1-.92a2.09,2.09,0,0,0-.38-3.32L50.73,37A2,2,0,0,0,48.38,37.31Z"></path><path class="gr11" d="M51,38.66,49,40.59c-.77.73-.86,2.28-.07,3.67l.33.58c1.06,1.86,3.11,2.84,4.3,1.72l3.16-3c1.19-1.11.34-3.23-1.44-4.4l-.56-.37C53.36,38,51.81,37.94,51,38.66Z"></path><ellipse class="gr12" cx="54.23" cy="44.14" rx="3.91" ry="1.8" transform="translate(-15.52 49.01) rotate(-43.14)"></ellipse><path class="gr13" d="M89.61,39.94l-6.5-18.48L69.58,35.63,55.84,50.81l20,4.31,20,4.31ZM60.24,49.61l11-12.18,11-12.18,5,15.64,5,15.64L76.31,53.07Z"></path><path class="bg1" d="M87.54,51.49l-2.91-9L81.72,33.4h0a1.3,1.3,0,0,0-2.31-.5h0L73,40l-6.36,7a1.3,1.3,0,0,0,.57,2.27l9.44,2,9.44,2a1.3,1.3,0,0,0,1.45-1.84Z"></path><path class="gr14" d="M81.78,29.88l-1-.21a2.4,2.4,0,0,1-2-1.85l-.1-1.71C78.58,24.71,80,23.63,81.73,24l1.65.35c1.78.38,2.55,1.93,1.88,3.15L84.42,29A2.47,2.47,0,0,1,81.78,29.88Z"></path><path class="gr15" d="M83.61,27.4l-3.45-.74a3.59,3.59,0,0,1-2.58-3.25l-.05-.68c-.17-2.17,1.29-4,3.28-3.6l5.31,1.14c2,.43,2.56,2.72,1.52,4.63l-.33.6A3.59,3.59,0,0,1,83.61,27.4Z"></path><ellipse class="gr16" cx="83.18" cy="20.97" rx="1.81" ry="4.9" transform="translate(45.19 97.88) rotate(-77.86)"></ellipse><path class="gr17" d="M61.63,45.88l.58.56a1.92,1.92,0,0,1,.4,2.31l-.89,1.44a2.14,2.14,0,0,1-3.34.51l-1-.94a2.1,2.1,0,0,1,.44-3.32l1.44-.91A2,2,0,0,1,61.63,45.88Z"></path><path class="gr18" d="M59,47.2l2,2c.76.74.83,2.29,0,3.67l-.34.58c-1.09,1.84-3.16,2.79-4.34,1.66l-3.12-3c-1.17-1.14-.29-3.24,1.52-4.39l.57-.36C56.63,46.44,58.19,46.46,59,47.2Z"></path><ellipse class="gr19" cx="55.66" cy="52.63" rx="1.81" ry="3.92" transform="translate(-20.87 56) rotate(-45.92)"></ellipse><path class="gr20" d="M93,52.63l-.76.27a1.92,1.92,0,0,0-1.31,1.95l.22,1.68A2.14,2.14,0,0,0,94,58.36l1.27-.46a2.1,2.1,0,0,0,1-3.2l-.93-1.42A2,2,0,0,0,93,52.63Z"></path><path class="gr21" d="M94.9,54.93l-2.66,1c-1,.36-1.7,1.75-1.52,3.35l.07.67c.24,2.13,1.74,3.84,3.27,3.29l4.08-1.47c1.54-.55,1.6-2.83.42-4.62l-.37-.56C97.33,55.19,95.9,54.57,94.9,54.93Z"></path><ellipse class="gr22" cx="95.67" cy="61.23" rx="3.92" ry="1.81" transform="translate(-15.09 36.04) rotate(-19.81)"></ellipse><path class="gr23" d="M61.56,66.25,46.3,49.64,38.41,70.78,30.76,93.08,53.9,88.56,77.05,84ZM34.87,89.81,41,71.92,47.15,54,59.58,68.29,72,82.55,53.44,86.18Z"></path><path class="bg1" d="M64.61,79.41l-7.17-8.22-7.21-8.28h0a1.5,1.5,0,0,0-2.67.52h0L44,73.82,40.46,84.13a1.5,1.5,0,0,0,1.63,2.15L53,84.15,63.91,82a1.5,1.5,0,0,0,.7-2.61Z"></path><path class="gr24" d="M48.7,59.16l-1.14.22a2.77,2.77,0,0,1-3-1l-.88-1.77c-.71-1.43.25-3.2,2.3-3.6l1.9-.37c2.05-.4,3.57.88,3.41,2.48l-.2,2A2.85,2.85,0,0,1,48.7,59.16Z"></path><path class="gr25" d="M49.51,55.71l-4,.78a4.14,4.14,0,0,1-4.21-2.27l-.37-.7c-1.17-2.22-.46-4.84,1.84-5.3L48.93,47c2.31-.45,3.95,1.72,3.7,4.21l-.08.78A4.14,4.14,0,0,1,49.51,55.71Z"></path><ellipse class="gr26" cx="46.15" cy="49.1" rx="5.65" ry="2.08" transform="translate(-8.57 9.78) rotate(-11.08)"></ellipse><path class="gr27" d="M34.65,85.24l.87.33A2.21,2.21,0,0,1,37,87.84l-.29,1.93a2.47,2.47,0,0,1-3.31,2.05L32,91.26a2.41,2.41,0,0,1-1-3.71L32,85.94A2.27,2.27,0,0,1,34.65,85.24Z"></path><path class="gr28" d="M32.41,87.84l3,1.16c1.14.44,1.91,2.05,1.68,3.89l-.1.77c-.32,2.45-2.08,4.39-3.84,3.72l-4.67-1.78c-1.76-.67-1.78-3.29-.39-5.33l.44-.64C29.62,88.1,31.27,87.41,32.41,87.84Z"></path><ellipse class="gr29" cx="31.39" cy="95.08" rx="2.08" ry="4.51" transform="translate(-68.64 90.54) rotate(-69.13)"></ellipse><path class="gr3" d="M70.9,78.14l-.68.64a2.21,2.21,0,0,0-.5,2.66l1,1.68a2.47,2.47,0,0,0,3.83.65l1.13-1.06a2.41,2.41,0,0,0-.43-3.83L73.61,77.8A2.27,2.27,0,0,0,70.9,78.14Z"></path><path class="gr31" d="M74,79.71l-2.38,2.22c-.89.83-1,2.62-.09,4.23l.38.67c1.22,2.15,3.58,3.28,5,2l3.65-3.41c1.37-1.28.41-3.72-1.65-5.08l-.65-.43C76.65,78.89,74.86,78.87,74,79.71Z"></path><ellipse class="gr1" cx="77.64" cy="86.03" rx="4.51" ry="2.08" transform="translate(-37.82 76.1) rotate(-43.02)"></ellipse></g></svg>