<?xml-stylesheet href="main.css" type="text/css"?>
<svg class="special-icon-svg special-icon18-svg" xmlns="http://www.w3.org/2000/svg" aria-labelledby="special-icon18-svg-title-ed96dd8f-87ad-4625-9033-136fc0e18d16" viewBox="0 0 107.96 107.96"><g><rect class="area" width="107.51" height="107.51" rx="29.71" ry="29.71"></rect><path class="gr1" d="M45.84,95.17c-1.86-.72-2.44-1.07-4.31-1.78l-1.76,2.13a1.4,1.4,0,0,0,.27,2,6.81,6.81,0,0,0,1.69,1,8.06,8.06,0,0,0,1.9.66,1.4,1.4,0,0,0,1.72-1.14Z"></path><polygon class="gr2" points="45.03 83.18 41.41 93.53 45.8 95.41 51.47 86.08 45.03 83.18"></polygon><polygon class="gr3" points="57.18 80.46 45.25 75.03 46.6 70.64 59.5 76.59 57.18 80.46"></polygon><polygon class="gr4" points="55.71 83.88 43.78 78.46 45.13 74.06 58.02 80.02 55.71 83.88"></polygon><polygon class="gr5" points="53.97 87.67 42.03 82.25 43.38 77.85 56.28 83.81 53.97 87.67"></polygon><path class="bg1" d="M47.77,67.05,68.92,77a15.26,15.26,0,0,0,9.71,1.25h0a9.25,9.25,0,0,0,6.57-4.92L93,56.86a9.29,9.29,0,0,0-.4-8.21h0A15.29,15.29,0,0,0,85.4,42L64.24,32a15.31,15.31,0,0,0-9.7-1.26h0A9.28,9.28,0,0,0,48,35.66L40.22,52.14a9.26,9.26,0,0,0,.4,8.21h0A15.31,15.31,0,0,0,47.77,67.05Z"></path><path class="gr6" d="M47.77,67.05,68.92,77a15.26,15.26,0,0,0,9.71,1.25h0a9.25,9.25,0,0,0,6.57-4.92L93,56.86a9.29,9.29,0,0,0-.4-8.21h0A15.29,15.29,0,0,0,85.4,42L64.24,32a15.31,15.31,0,0,0-9.7-1.26h0A9.28,9.28,0,0,0,48,35.66L40.22,52.14a9.26,9.26,0,0,0,.4,8.21h0A15.31,15.31,0,0,0,47.77,67.05Z"></path><path class="gr7" d="M38.66,68.82l21.16,10a13.55,13.55,0,0,0,10,.63h0A12.33,12.33,0,0,0,77.1,73l9.51-20.22a12.33,12.33,0,0,0,.3-9.7h0a13.53,13.53,0,0,0-6.86-7.3l-21.15-10a13.46,13.46,0,0,0-10-.63h0a12.29,12.29,0,0,0-7.28,6.41L32.1,51.81a12.33,12.33,0,0,0-.3,9.7h0A13.51,13.51,0,0,0,38.66,68.82Z"></path><path class="bg1" d="M80.35,29.75c-1.92-5.69-5.44-9.64-9.82-11.71h0l-4.13-2L39.24,73.58l3.42,1.61C49.08,78.6,57.51,77.75,65.43,72,78.36,62.56,85,43.66,80.35,29.75Z"></path><path class="gr8" d="M80.35,29.75c-1.92-5.69-5.44-9.64-9.82-11.71h0l-4.13-2L39.24,73.58l3.42,1.61C49.08,78.6,57.51,77.75,65.43,72,78.36,62.56,85,43.66,80.35,29.75Z"></path><ellipse class="bg1" cx="53.16" cy="45.01" rx="31.81" ry="23.07" transform="translate(-10.24 73.85) rotate(-64.72)"></ellipse><ellipse class="gr9" cx="53.16" cy="45.01" rx="31.81" ry="23.07" transform="translate(-10.24 73.85) rotate(-64.72)"></ellipse><path class="bg1" d="M73.24,26.39c-1.92-5.69-5.45-9.65-9.83-11.71h0l-4.13-1.95L32.13,70.22l3.41,1.61c6.42,3.41,14.85,2.56,22.78-3.22C71.25,59.2,77.92,40.3,73.24,26.39Z"></path><path class="gr10" d="M73.24,26.39c-1.92-5.69-5.45-9.65-9.83-11.71h0l-4.13-1.95L32.13,70.22l3.41,1.61c6.42,3.41,14.85,2.56,22.78-3.22C71.25,59.2,77.92,40.3,73.24,26.39Z"></path><ellipse class="bg1" cx="46.05" cy="41.65" rx="31.81" ry="23.07" transform="translate(-11.28 65.49) rotate(-64.72)"></ellipse><ellipse class="gr11" cx="46.05" cy="41.65" rx="31.81" ry="23.07" transform="translate(-11.28 65.49) rotate(-64.72)"></ellipse><path class="bg1" d="M65.73,22.85c-1.91-5.69-5.44-9.65-9.82-11.71h0l-4.13-2L24.62,66.67,28,68.29c6.42,3.4,14.85,2.55,22.78-3.22C63.74,55.65,70.42,36.75,65.73,22.85Z"></path><path class="gr12" d="M65.73,22.85c-1.91-5.69-5.44-9.65-9.82-11.71h0l-4.13-2L24.62,66.67,28,68.29c6.42,3.4,14.85,2.55,22.78-3.22C63.74,55.65,70.42,36.75,65.73,22.85Z"></path><ellipse class="bg1" cx="38.54" cy="38.1" rx="31.81" ry="23.07" transform="translate(-12.37 56.68) rotate(-64.72)"></ellipse><ellipse class="gr13" cx="38.54" cy="38.1" rx="31.81" ry="23.07" transform="translate(-12.37 56.68) rotate(-64.72)"></ellipse><ellipse class="gr14" cx="38.54" cy="38.1" rx="27.66" ry="20.06" transform="translate(-12.37 56.68) rotate(-64.72)"></ellipse><path class="gr15" d="M23.35,39.61,16.9,43.1a27.81,27.81,0,0,0,0,3.42l6.66-3.59A15.24,15.24,0,0,1,23.35,39.61Z"></path><path class="gr16" d="M29.48,30.41c3.26,1.51,4.2,10.63,7.1,12,1.76.85,5.25-.62,8.46-1.55l-2-10.84L40.59,16.33l4.11-2.22-2.31-2.4c-6.17.52-12.64,4.35-17.59,10.63L24,25.26,28.15,23Z"></path><path class="gr17" d="M27.68,49.17l-9.09,4.91a19.62,19.62,0,0,0,1.34,2.72L30.8,50.93l-.19-1A3.51,3.51,0,0,1,27.68,49.17Z"></path><path class="gr18" d="M24.2,45.1l-7,3.79A23.22,23.22,0,0,0,17.87,52l7.93-4.27A8.24,8.24,0,0,1,24.2,45.1Z"></path><path class="gr19" d="M44.17,53.05l1.31,7.23a30.72,30.72,0,0,0,2.68-2.12L46.9,51.21A15.38,15.38,0,0,1,44.17,53.05Z"></path><path class="gr20" d="M56.64,18.65l-3.24-.31L54.23,23l-9.15,4.94,2.25,12.45a5.2,5.2,0,0,1,2.87.13l6.56-3.54.84,4.61,1.63-2.19C61.09,31.55,60.13,23.94,56.64,18.65Z"></path><path class="gr21" d="M39.08,54.19,40.66,63a24.63,24.63,0,0,0,2.82-1.4l-1.39-7.66A8,8,0,0,1,39.08,54.19Z"></path><path class="gr22" d="M33.82,48.21a1,1,0,0,0-1.11,0l2.91,16.1a19.54,19.54,0,0,0,3-.66L36.74,53.58C32.37,51.9,35.77,49.15,33.82,48.21Z"></path><path class="gr23" d="M40.36,43.13a1.43,1.43,0,0,0-.28,1.14c.15,1.09.77,1.54,1.72,1.33a2.75,2.75,0,0,0,1.77-2.54.91.91,0,0,0-.18-.7l-1.55.34A14.78,14.78,0,0,0,40.36,43.13Z"></path><path class="gr24" d="M47.25,44.79c.18-1.94-.76-2.49-2.17-2.51a1.33,1.33,0,0,1,.36,1.24,4.87,4.87,0,0,1-3.77,4.26c-2,.32-3.22-.48-3.48-2.35a2.18,2.18,0,0,1,.39-1.64,3.81,3.81,0,0,0-2,3.91c.35,3,2.18,4.3,5.05,3.83S46.94,48,47.25,44.79Z"></path><path class="gr25" d="M33.53,39.82a1.48,1.48,0,0,1-.71.93c-.95.55-1.68.35-2.11-.53a2.74,2.74,0,0,1,.88-3,.9.9,0,0,1,.65-.3l.7,1.43A15,15,0,0,1,33.53,39.82Z"></path><path class="gr26" d="M28,35.43c1.39-1.36,2.41-1,3.3.14a1.35,1.35,0,0,0-1.19.49,4.91,4.91,0,0,0-1,5.62c1,1.74,2.37,2.24,4,1.28a2.15,2.15,0,0,0,1-1.33,3.81,3.81,0,0,1-1.81,4c-2.56,1.59-4.7,1-6.13-1.6S25.64,37.66,28,35.43Z"></path></g></svg>