<?xml-stylesheet href="main.css" type="text/css"?>
<svg class="special-icon-svg special-icon11-svg" xmlns="http://www.w3.org/2000/svg" aria-labelledby="special-icon11-svg-title-6095dc4c-e2f3-448c-9773-f035b2e933dc" viewBox="0 0 107.96 107.96"><g><title id="special-icon11-svg-title-6095dc4c-e2f3-448c-9773-f035b2e933dc">Specials used</title><rect class="area" width="107.96" height="107.96" rx="29.84" ry="29.84"></rect><path class="bg1" d="M90.56,92.92c-1.89-.45-6.67.1-6.7-.69.11-.55,3.59-.51,5-.59,2.58-.16,5.9-.66,5.35-1.51s-4.11-.86-6.6-.64S80.19,90,80.66,89c.32-.41,1.45-.38,2.25-.53C85.68,88,87,86.73,86,85.73s-4.41-1.69-7.6-1.55a57.08,57.08,0,0,0-7.61,1.22c-2.52.43-6.07.56-7.8-.18a8.61,8.61,0,0,1-1.58-1.13c-2-1.29-8.67-1.27-10.62,0a8,8,0,0,1-1,.71c-1.58.79-5.23.7-7.77.26a63.43,63.43,0,0,0-7.57-1.29c-2.81-.17-6.35.61-5.47,1.51.65.67,3.41,1.18,2.53,1.82-.61.44-2.43.45-3.88.41a32.92,32.92,0,0,0-8.13.54c-2.25.57-3,1.84-.8,2.43A29.26,29.26,0,0,0,23,91c1.49.13,3.09.49,3,1s-1.25.75-2.13,1.09c-1.94.73-2.45,1.84-1.27,2.74s4,1.52,6.95,1.53c2.15,0,4.22-.27,6.37-.3s4.84.08,4.86.79a1.77,1.77,0,0,0,1.06,1.37,10.53,10.53,0,0,0,2.93.82A26.29,26.29,0,0,0,54,99.89c4-.79,1.49-1.92,3-2.31a20.69,20.69,0,0,1,8.22.19,52.12,52.12,0,0,0,7.69,1.37c2.88.17,6.49-.55,5.92-1.5-.3-.5-1.58-.85-2.4-1.28s-.93-1.13.48-1.32a9.07,9.07,0,0,1,1.68,0,63.73,63.73,0,0,0,9.4.3C91.09,95,93.14,93.53,90.56,92.92Z"></path><g class="mask1"><circle class="gr1-2" cx="53.53" cy="49.5" r="41.9"></circle></g><path class="bg1" d="M28.83,72.48c2.71,1.44,4.8,3.85,7.68,5,3.12,1.26,6.32.79,9.48-.07,2.32-.63,4.63-1.59,7.07-1.64s4.89.86,7.27,1.63c3.24,1,6.45,1.74,9.85,1,4.26-.89,7.34-4.09,11.41-5.3a12.69,12.69,0,0,1,3.32-.5,39.48,39.48,0,0,1-64.45-2.52A22.79,22.79,0,0,1,28.83,72.48Z"></path><path class="gr1-3" d="M22.47,19.82S47.56,60.53,94,61.07A34.27,34.27,0,0,1,89.8,72.83,83.87,83.87,0,0,1,40.26,58.67C23.16,47,15.24,29,15.24,29Z"></path><path class="gr1-4" d="M15.61,70.8s45.17-15.73,55.7-61a34.27,34.27,0,0,1,10.58,6.66A83.87,83.87,0,0,1,57.38,61.79C42.33,76,23,79.83,23,79.83Z"></path></g></svg>
