<?xml-stylesheet href="main.css" type="text/css"?>
<svg class="special-icon-svg special-icon6-svg" xmlns="http://www.w3.org/2000/svg" aria-labelledby="special-icon6-svg-title-2276ae19-9507-4acd-b421-0a407bbf4199" viewBox="0 0 107.96 107.96"><g><title id="special-icon6-svg-title-2276ae19-9507-4acd-b421-0a407bbf4199">Spezialwaffeneinsätze</title><rect class="area" width="107.96" height="107.96" rx="29.84" ry="29.84"></rect><ellipse class="bg1" cx="71.95" cy="19.66" rx="9.21" ry="11.77" transform="rotate(-22.97 71.955 19.668)"></ellipse><ellipse cx="70.15" cy="20.33" rx="5.04" ry="7.11" transform="rotate(-22.97 70.156 20.327)"></ellipse><path d="M69.59 16.37c-1.78-2-1.09-2.25-3.1-2.88a24.83 24.83 0 0 0-5.49-.67S43.34 17.56 42.15 19s-3 7.41 7.36 6.69l20.08-9.32zm-7.43 14.89s1.58 1.94-1.33 4.4-18.55 3.82-20-1.58l1.33-6.87z"></path><path class="gr30" d="M41.65 48.24c.46-.21.44-.53 0-.7a2.58 2.58 0 0 0-1.7.07L36.55 49c-1.38-.79-1.36-1.53-.33-2l11.31-4.4a7.11 7.11 0 0 1 5.41-.13c1.83.47 2.15 2.12.74 2.8l-9.17 4.95c-2.31 1.07-4.19 1.43-6.7-.33z"></path><path class="gr29" d="M51.11 39.57v2.35c0 1 1.22 2.83.17 3.2s-4-.56-4-2.71v-2.77a32.16 32.16 0 0 0 3.83-.07z"></path><path class="gr28" d="M53.63 38.7v4.21a2.43 2.43 0 0 1-1.9 2.09 1.53 1.53 0 0 1-1.9-1.64v-4.3c1.27-.06 2.53-.21 3.8-.36z"></path><path class="gr27" d="M61.4 34.08a27.66 27.66 0 0 1-13 1.66c-3.53-.4-6.25-1.41-7.93-2.81a22.47 22.47 0 0 1-1-3.69 12.49 12.49 0 0 1 2.25-9.82c-.36 1.3-.15 2.07 1.31 2.33a31.91 31.91 0 0 0 13.58-.29c1.43-.37 7.49-3.73 10.11-5a1.46 1.46 0 0 0 .3-2.44 6 6 0 0 0-1.78-.87A9.94 9.94 0 0 1 71.6 17c1.46 2.1 3 6.08.82 9.76-1.46 2.49-8.66 5-10.39 6.46a3.24 3.24 0 0 0-.63.86z"></path><path class="gr26" d="M47.11 36.76a28.57 28.57 0 0 0 8.14 0A21.92 21.92 0 0 0 61 35.22a7.82 7.82 0 0 1-3.12 4.37 11.85 11.85 0 0 1-11.51.77c-2.59-1.11-4.37-3.54-5.52-6.28a12.62 12.62 0 0 0 6.26 2.68z"></path><path class="bg1" d="M65.39 13.55a1.46 1.46 0 0 1-.25 2.45c-2.5 1.33-6 3.61-7.46 4-3.92 1.18-12.9.63-14 .27s-1.5-1.23-1.48-3.19v-4.09c0-1.37.17-3.08 2.36-3.47a66.06 66.06 0 0 1 13.1.39 17.55 17.55 0 0 1 7.73 3.64z"></path><path d="M53.6 11a5.1 5.1 0 0 1 3.1 5c-.18 2.1-1.05 3.22-4 3.33a53.86 53.86 0 0 1-8.46-.33c-.94-.23-1.27-.88-1.34-2.63v-2.73c0-1.72.15-3 2.15-3.1 2.55-.14 6.68-.46 8.55.46z"></path><path class="gr25" d="M58.63 52.9c.43-.26.39-.61-.08-.77a2.25 2.25 0 0 0-1.65.19L53.77 54c-1.39-.78-1.47-1.53-.5-2.15L64 46.26a6.2 6.2 0 0 1 5.25-.49c1.81.4 2.22 2.19.9 3l-8.6 6c-2.51 1.66-4.53 1.5-6.53.07z"></path><path class="gr24" d="M67.25 48.64c1-.36-.17-2.15-.17-3.2V33.5a1.31 1.31 0 0 0-1.9-1.24 3 3 0 0 0-1.9 2.56v11.11c0 2.16 2.93 3.07 3.97 2.71z"></path><path class="gr23" d="M67.69 48.57a2.43 2.43 0 0 0 1.9-2.13V34.48a1.31 1.31 0 0 0-1.9-1.24 3 3 0 0 0-1.9 2.56v11.12a1.53 1.53 0 0 0 1.9 1.65z"></path><ellipse class="gr22" cx="66.48" cy="33.75" rx="6.72" ry="4.98" transform="rotate(-60 66.48 33.752)"></ellipse><ellipse class="gr21" cx="67.76" cy="34.34" rx="6.72" ry="4.98" transform="rotate(-60 67.758 34.34)"></ellipse><ellipse cx="56.72" cy="27.71" rx="1.47" ry="1.99"></ellipse><ellipse cx="39.24" cy="25.34" rx="1.06" ry="1.49"></ellipse><path class="bg1" d="M62.91 53.9l-1.33.93c-2.51 1.66-4.53 1.5-6.53.07l3.57-2c.43-.26.39-.61-.08-.77a2.25 2.25 0 0 0-1.65.19L53.77 54c-1.39-.78-1.47-1.53-.5-2.15l2.36-1.24zm-21.3-6.36a2.59 2.59 0 0 0-1.7.07L36.55 49c-1.38-.79-1.36-1.53-.33-2l2.5-1 7.17 3.43-1.39.75c-2.31 1.07-4.19 1.43-6.7-.33l3.83-1.65c.47-.2.46-.49-.02-.66z"></path><ellipse class="bg1" cx="45.01" cy="51.99" rx="9.76" ry="12.48" transform="rotate(-22.97 45.016 51.99)"></ellipse><ellipse cx="43.1" cy="52.71" rx="5.34" ry="7.54" transform="rotate(-22.97 43.103 52.704)"></ellipse><path d="M42.51 48.51c-1.88-2.08-1.16-2.39-3.29-3.05a26.33 26.33 0 0 0-5.82-.71s-18.73 5-20 6.59-3.14 7.86 7.81 7.09l21.3-9.92zM34.63 64.3s1.67 2.05-1.41 4.7S13.55 73 12 67.29L13.41 60z"></path><path class="gr20" d="M12.87 82.3c.48-.22.47-.56 0-.74a2.74 2.74 0 0 0-1.8.08l-3.6 1.51C6 82.31 6 81.53 7.12 81l12-4.68a7.54 7.54 0 0 1 5.74-.14c1.94.5 2.28 2.24.78 3l-9.73 5.25c-2.45 1.14-4.45 1.52-7.1-.35z"></path><path class="gr19" d="M22.91 73.11v2.49c0 1.11 1.29 3 .18 3.39s-4.21-.59-4.21-2.87v-2.94a34.1 34.1 0 0 0 4.03-.07z"></path><path class="gr18" d="M25.58 72.18v4.47a2.58 2.58 0 0 1-2 2.26 1.62 1.62 0 0 1-2-1.74v-4.6c1.32-.07 2.66-.23 4-.39z"></path><path class="gr17" d="M33.82 67.29A29.33 29.33 0 0 1 20 69c-3.74-.43-6.63-1.5-8.41-3a23.83 23.83 0 0 1-1-3.91 13.24 13.24 0 0 1 2.38-10.41c-.38 1.38-.15 2.2 1.39 2.47a33.84 33.84 0 0 0 14.4-.31c1.52-.39 7.94-4 10.72-5.27a1.54 1.54 0 0 0 .32-2.59 6.38 6.38 0 0 0-1.89-.93 10.54 10.54 0 0 1 6.76 4.08c1.55 2.23 3.16 6.45.87 10.35-1.55 2.64-9.18 5.32-11 6.84a3.44 3.44 0 0 0-.72.97z"></path><path class="gr16" d="M18.67 70.13a30.3 30.3 0 0 0 8.63 0 23.25 23.25 0 0 0 6.07-1.67 8.3 8.3 0 0 1-3.31 4.64 12.56 12.56 0 0 1-12.21.82c-2.74-1.18-4.64-3.75-5.85-6.66a13.38 13.38 0 0 0 6.67 2.87z"></path><path class="bg1" d="M38 45.52a1.55 1.55 0 0 1-.26 2.56c-2.65 1.41-6.39 3.83-7.91 4.28-4.11 1.25-13.63.64-14.83.29s-1.59-1.3-1.57-3.38v-4.34c0-1.45.18-3.27 2.5-3.68s11.23-.1 13.89.41A18.61 18.61 0 0 1 38 45.52z"></path><path d="M25.55 42.83a5.4 5.4 0 0 1 3.29 5.33c-.19 2.23-1.12 3.41-4.22 3.53a57.12 57.12 0 0 1-9-.37c-1-.25-1.35-.93-1.42-2.79v-2.9c0-1.83.16-3.16 2.28-3.29 2.71-.16 7.09-.5 9.07.49z"></path><path class="gr15" d="M30.88 87.24c.46-.28.42-.64-.09-.81a2.38 2.38 0 0 0-1.75.2l-3.31 1.83c-1.48-.83-1.56-1.63-.53-2.28l11.42-6a6.57 6.57 0 0 1 5.57-.52c1.92.43 2.36 2.32 1 3.21L34 89.29c-2.66 1.76-4.8 1.59-6.93.07z"></path><path class="gr14" d="M40 82.73c1.11-.39-.18-2.28-.18-3.39V66.67a1.38 1.38 0 0 0-2-1.31 3.14 3.14 0 0 0-2 2.72v11.77c-.01 2.29 3.1 3.26 4.18 2.88z"></path><path class="gr13" d="M40.5 82.65a2.58 2.58 0 0 0 2-2.26V67.71a1.38 1.38 0 0 0-2-1.31 3.14 3.14 0 0 0-2 2.72V80.9a1.62 1.62 0 0 0 2 1.75z"></path><ellipse class="gr12" cx="39.21" cy="66.94" rx="7.13" ry="5.28" transform="rotate(-60 39.202 66.94)"></ellipse><ellipse class="gr11" cx="40.56" cy="67.56" rx="7.13" ry="5.28" transform="rotate(-60 40.563 67.563)"></ellipse><ellipse cx="28.85" cy="60.53" rx="1.55" ry="2.11"></ellipse><ellipse cx="10.32" cy="58.01" rx="1.13" ry="1.58"></ellipse><path class="bg1" d="M35.43 88.3l-1.41 1c-2.66 1.76-4.8 1.59-6.93.07l3.78-2.12c.46-.28.42-.64-.09-.81a2.38 2.38 0 0 0-1.75.2l-3.31 1.83c-1.48-.83-1.56-1.63-.53-2.28l2.5-1.31zm-22.6-6.74a2.74 2.74 0 0 0-1.8.08l-3.56 1.51C6 82.31 6 81.53 7.12 81l2.65-1 7.6 3.64-1.47.79c-2.45 1.14-4.45 1.52-7.1-.35l4.07-1.75c.49-.26.47-.59-.04-.77z"></path><ellipse class="bg1" cx="90.56" cy="61.92" rx="9.9" ry="12.65" transform="rotate(-22.97 90.56 61.91)"></ellipse><ellipse cx="88.63" cy="62.65" rx="5.41" ry="7.64" transform="rotate(-22.97 88.642 62.648)"></ellipse><path d="M88 58.39c-1.88-2.11-1.15-2.39-3.3-3.09a26.68 26.68 0 0 0-5.9-.72s-19 5.09-20.27 6.68-3.18 8 7.91 7.19L88 58.39zm-8 16s1.7 2.08-1.43 4.73-19.94 4.1-21.51-1.7L58.53 70z"></path><path class="gr10" d="M58 92.64c.49-.23.47-.56 0-.75a2.78 2.78 0 0 0-1.83.08l-3.66 1.53c-1.48-.85-1.46-1.64-.35-2.18l12.15-4.74a7.64 7.64 0 0 1 5.82-.14c2 .51 2.31 2.27.79 3l-9.86 5.32c-2.48 1.15-4.51 1.54-7.2-.35z"></path><path class="gr9" d="M68.17 83.32v2.52c0 1.12 1.31 3 .19 3.44s-4.27-.6-4.27-2.91v-3a34.56 34.56 0 0 0 4.08-.05z"></path><path class="gr8" d="M70.87 82.38v4.53a2.62 2.62 0 0 1-2 2.29 1.64 1.64 0 0 1-2-1.77v-4.65c1.28-.07 2.64-.24 4-.4z"></path><path class="gr7" d="M79.22 77.42a29.72 29.72 0 0 1-14 1.78c-3.79-.43-6.72-1.52-8.52-3a24.15 24.15 0 0 1-1.06-4A13.42 13.42 0 0 1 58 61.67c-.39 1.39-.16 2.23 1.41 2.51A34.3 34.3 0 0 0 74 63.87c1.54-.4 8.05-4 10.87-5.34a1.57 1.57 0 0 0 .32-2.63 6.47 6.47 0 0 0-1.86-.9 10.68 10.68 0 0 1 6.85 4.14c1.57 2.26 3.2 6.53.88 10.49-1.57 2.68-9.3 5.39-11.16 6.94a3.49 3.49 0 0 0-.68.85z"></path><path class="gr6" d="M63.86 80.3a30.71 30.71 0 0 0 8.75 0 23.56 23.56 0 0 0 6.15-1.7 8.41 8.41 0 0 1-3.36 4.7 12.73 12.73 0 0 1-12.4.87c-2.78-1.2-4.7-3.8-5.93-6.75a13.56 13.56 0 0 0 6.79 2.88z"></path><path class="bg1" d="M83.51 55.36a1.57 1.57 0 0 1-.27 2.6c-2.69 1.43-6.48 3.88-8 4.34-4.21 1.27-13.86.68-15.08.29s-1.61-1.32-1.59-3.43v-4.4c0-1.47.19-3.31 2.53-3.73s11.38-.11 14.07.42a18.87 18.87 0 0 1 8.34 3.91z"></path><path d="M70.84 52.64A5.48 5.48 0 0 1 74.17 58C74 60.3 73 61.49 69.9 61.62a57.89 57.89 0 0 1-9.11-.38c-1-.25-1.36-.94-1.44-2.83v-2.94c0-1.85.16-3.2 2.32-3.33 2.72-.14 7.16-.51 9.17.5z"></path><path class="gr5" d="M76.24 97.65c.46-.28.42-.65-.09-.82a2.42 2.42 0 0 0-1.77.2L71 98.88c-1.5-.84-1.58-1.65-.54-2.31l11.57-6.06a6.66 6.66 0 0 1 5.68-.51c1.94.43 2.39 2.35 1 3.26l-9.25 6.48c-2.69 1.79-4.87 1.61-7 .07z"></path><path class="gr4" d="M85.51 93.07c1.12-.39-.19-2.31-.19-3.44V76.79a1.4 1.4 0 0 0-2-1.33 3.18 3.18 0 0 0-2 2.76v11.94c-.08 2.31 3.07 3.3 4.19 2.91z"></path><path class="gr3" d="M86 93a2.62 2.62 0 0 0 2-2.29V77.86a1.4 1.4 0 0 0-2-1.33 3.18 3.18 0 0 0-2 2.76v11.93A1.64 1.64 0 0 0 86 93z"></path><ellipse class="gr2" cx="84.68" cy="77.07" rx="7.23" ry="5.36" transform="rotate(-60 84.682 77.066)"></ellipse><ellipse class="gr1" cx="86.05" cy="77.7" rx="7.23" ry="5.36" transform="rotate(-60 86.06 77.7)"></ellipse><ellipse cx="74.19" cy="70.58" rx="1.58" ry="2.14"></ellipse><ellipse cx="55.4" cy="68.02" rx="1.14" ry="1.6"></ellipse><path class="bg1" d="M80.85 98.72l-1.42 1c-2.69 1.79-4.87 1.61-7 .08l3.83-2.15c.46-.28.42-.65-.09-.82a2.42 2.42 0 0 0-1.77.2L71 98.88c-1.5-.84-1.58-1.65-.54-2.31L73 95.24zM58 91.89a2.78 2.78 0 0 0-1.83.08l-3.66 1.53c-1.48-.85-1.46-1.64-.35-2.18l2.69-1L62.56 94l-1.49.8c-2.48 1.15-4.51 1.54-7.2-.35L58 92.64c.48-.23.47-.57 0-.75z"></path></g></svg>