<?xml-stylesheet href="main.css" type="text/css"?>
<svg class="special-icon-svg special-icon5-svg" xmlns="http://www.w3.org/2000/svg" aria-labelledby="special-icon6-svg-title-d17808d0-0692-46eb-9ba2-993b9aa62176" viewBox="0 0 107.96 107.96"><g><title id="special-icon6-svg-title-d17808d0-0692-46eb-9ba2-993b9aa62176">Spezialwaffeneinsätze</title><rect class="area" width="107.96" height="107.96" rx="29.84" ry="29.84"></rect><path d="M64 43.17v-11.8h-.11C62.83 36.45 53.88 40 43 40s-19.83-3.54-20.92-8.62H22v11.79a4.67 4.67 0 0 0 0 .83c0 5.57 8.76 10.08 21 10.08S64 49.54 64 44a4.68 4.68 0 0 0 0-.83z"></path><path class="gr-2" d="M64 31.71c0 4-8.39 9.21-21 9.21-13.08 0-21-6.06-21-9.21 0-5 9.42-9.13 21-9.13s21 4.09 21 9.13z"></path><ellipse class="gr-3" cx="43" cy="29.91" rx="15.76" ry="6.49"></ellipse><ellipse cx="43" cy="26.64" rx="9.01" ry="3.4"></ellipse><path class="gr-4" d="M51.42 13.61a34.71 34.71 0 0 0-10.67.57c-4.64 1.08-5.48 2.1-6 3.9s.48 3.44.88 4.93a6.56 6.56 0 0 1-.44 2.54c.49 1.6 5.13 2.39 6.91.57a6.22 6.22 0 0 0-.57-3.27c-.47-1.17-1.5-1.91-.71-2.68 1-1 3 0 8.23.67 4.29.53 5.17-.38 5.71-3.39.38-2.06-1.19-3.45-3.34-3.84z"></path><path class="bg1" d="M29.68 40.39C26 39 23.12 37 21.74 34.56l.3 6.91a5 5 0 0 0-.08.84c0 3.33 2.91 6.08 7.73 7.81zm23.22 1.23A43 43 0 0 1 43 42.7a40 40 0 0 1-9.9-1.22v9.62a45.16 45.16 0 0 0 9.9 1 45.16 45.16 0 0 0 9.9-1zm11.36-7.06c-1.54 2.68-4.36 4.68-7.95 6v9.54c4.82-1.72 7.69-4.47 7.69-7.79a5 5 0 0 0-.08-.84z"></path><path d="M55 82.11V68.6h-.1c-1.24 5.81-11.49 9.86-23.9 9.86S8.26 74.41 7 68.6h-.11L7 82.11a5.35 5.35 0 0 0-.09.92c0 6.37 10 11.53 24.08 11.53S55 89.4 55 83a5.35 5.35 0 0 0 0-.89z"></path><path class="gr-6" d="M55 69c0 4.53-9.58 10.53-24 10.53-15 0-24.11-6.94-24.11-10.53 0-5.77 10.77-10.45 24.07-10.45S55 63.22 55 69z"></path><ellipse class="gr-7" cx="30.96" cy="66.93" rx="18.04" ry="7.42"></ellipse><ellipse cx="30.96" cy="63.18" rx="10.31" ry="3.89"></ellipse><path class="gr-8" d="M40.59 48.28c-3.11-.56-9.24 0-12.21.65-5.31 1.24-6.27 2.4-6.85 4.46s.55 3.94 1 5.64a7.51 7.51 0 0 1-.53 2.9c.56 1.83 5.87 2.74 7.91.65a7.11 7.11 0 0 0-.66-3.74c-.54-1.33-1.72-2.19-.81-3.07 1.16-1.13 3.43 0 9.42.76 4.9.61 5.91-.43 6.54-3.88.46-2.34-1.34-3.93-3.81-4.37z"></path><path class="bg1" d="M15.72 78.92c-4.23-1.63-7.51-3.92-9.09-6.67L7 80.16a5.76 5.76 0 0 0-.09 1c0 3.81 3.33 7 8.84 8.94zm26.57 1.41A49.21 49.21 0 0 1 31 81.56a45.74 45.74 0 0 1-11.33-1.4v11A51.68 51.68 0 0 0 31 92.35a51.68 51.68 0 0 0 11.33-1.16zm13-8.08c-1.77 3.07-5 5.35-9.09 6.89v10.92c5.51-2 8.84-5.13 8.84-8.94a5.76 5.76 0 0 0-.09-1z"></path><path d="M102.31 66.36l.07-12.36h-.12c-1.14 5.33-10.53 9-22 9s-20.81-3.71-22-9h-.12l.07 12.38a4.91 4.91 0 0 0-.08.85c0 5.84 9.19 10.58 22.08 10.58s22.18-4.81 22.18-10.6a4.91 4.91 0 0 0-.08-.85z"></path><path class="gr-9" d="M102.38 54.34c0 4.16-8.81 9.66-22.07 9.66-13.72 0-22.07-6.36-22.07-9.66 0-5.29 9.88-9.58 22.07-9.58s22.07 4.24 22.07 9.58z"></path><ellipse class="gr-10" cx="80.31" cy="52.45" rx="16.54" ry="6.81"></ellipse><ellipse cx="80.31" cy="49.01" rx="9.45" ry="3.57"></ellipse><path class="gr-11" d="M89.14 35.34a36.42 36.42 0 0 0-11.19.59c-4.87 1.14-5.75 2.2-6.29 4.09s.5 3.61.93 5.17a6.89 6.89 0 0 1-.47 2.67c.51 1.68 5.38 2.51 7.25.6a6.52 6.52 0 0 0-.6-3.43c-.5-1.22-1.58-2-.74-2.82 1.06-1 3.15 0 8.64.7 4.5.56 5.42-.4 6-3.55.38-2.15-1.27-3.61-3.53-4.02z"></path><path class="bg1" d="M66.34 63.44c-3.88-1.49-6.89-3.6-8.34-6.12l.31 7.25a5.28 5.28 0 0 0-.08.88c0 3.49 3.06 6.38 8.11 8.2zm24.36 1.29a45.12 45.12 0 0 1-10.39 1.13 41.94 41.94 0 0 1-10.39-1.28v10.1a51.06 51.06 0 0 0 20.78 0zm11.92-7.41c-1.62 2.82-4.62 4.91-8.34 6.32v10c5.05-1.82 8.11-4.71 8.11-8.2a5.28 5.28 0 0 0-.08-.88z"></path></g></svg>