<?xml-stylesheet href="main.css" type="text/css"?>
<svg class="special-icon-svg special-icon10-svg" xmlns="http://www.w3.org/2000/svg" aria-labelledby="special-icon10-svg-title-267dd3d3-25bc-441b-bdae-1e0a1e02b7cb" viewBox="0 0 107.96 107.96"><g><title id="special-icon10-svg-title-267dd3d3-25bc-441b-bdae-1e0a1e02b7cb">Specials used</title><rect class="area" width="107.96" height="107.96" rx="29.84" ry="29.84"></rect><path class="bg1" d="M28.13 29.07s-5-9.53 1.63-15.1c5.46-4.59 13.52-1.41 16 3.2 0 0 2.84-5.34 8.65-6.79s13.72 0 17.06 6.76 0 11 0 11 3.28-8.88 10.29-7.81c7.74 1.18 6.89 9 6.89 9s10.42-3.47 11.56 5.25S90 43.12 90 43.12s5.7 6.5 1.1 12.35-11.72 1-11.72 1a12.11 12.11 0 0 1-11.05 8.03c-10.42.36-13.89-6.81-13.89-6.81s-1.44 6.6-9.84 5.42c-8-1.13-7.34-8.87-7.34-8.87s-4.32 9-12.31 10.35-15.59-2.45-16.3-9.45 6.84-13.8 12.21-13.94c0 0-7.87-3.85-4.94-10.58s10.58-4.52 12.21-1.55z"></path><path class="gr1" d="M28.29 54.37S23.53 62 23.53 65.68s2.5 4.39 5.37 4.39c2.32 0 4.15-1.83 4.15-4.88 0-2.69-4.76-10.82-4.76-10.82z"></path><path class="gr2" d="M58.19 25.1s-4.76 7.64-4.76 11.3 2.5 4.39 5.37 4.39c2.32 0 4.15-1.83 4.15-4.88 0-2.69-4.76-10.81-4.76-10.81z"></path><path class="gr3" d="M39.44 80.48s-4.76 7.64-4.76 11.3 2.5 4.39 5.37 4.39c2.32 0 4.15-1.83 4.15-4.88 0-2.68-4.76-10.81-4.76-10.81z"></path><path class="gr4" d="M73.81 40.79s-4.76 7.64-4.76 11.3 2.5 4.39 5.37 4.39c2.32 0 4.15-1.83 4.15-4.88 0-2.68-4.76-10.81-4.76-10.81z"></path><path class="bg1" d="M55.79 66.89S51 74.53 51 78.2s2.5 4.39 5.37 4.39c2.32 0 4.15-1.83 4.15-4.88.03-2.71-4.73-10.82-4.73-10.82zM83.33 63.1s-4.76 7.64-4.76 11.3 2.5 4.39 5.37 4.39c2.32 0 4.15-1.83 4.15-4.88 0-2.68-4.76-10.81-4.76-10.81zM73.81 80.48s-4.76 7.64-4.76 11.3 2.5 4.39 5.37 4.39c2.32 0 4.15-1.83 4.15-4.88 0-2.68-4.76-10.81-4.76-10.81z"></path></g></svg>