<?xml-stylesheet href="main.css" type="text/css"?>
<svg class="kill-icon-svg" xmlns="http://www.w3.org/2000/svg" aria-labelledby="kill-icon-svg-title" viewBox="0 0 38.87 20"><g><title id="kill-icon-svg-title">Opponents splatted</title><path class="bg1" d="M37.6,6.31c-1.44-.49-2.92.63-4.55,1.15-1,.32-1.26-.34-.78-.94C33,5.58,34.67,5,35.46,4.07c1.27-1.49.89-3.4-1.62-3.53A3.81,3.81,0,0,0,30.7,1.93c-1.16,1.79-.55,2.43-1.2,3.91-.24.53-.8,1.19-1.52.8-.4-.2-.4-.67-.06-1,1.15-1.25,1.85-3.51-.83-3.54a3.78,3.78,0,0,0-3.18,2.19,6.06,6.06,0,0,0-.09,3.13c.34,1.84.86,3.49-2.64,4.82-1.23.47-.93,1.33.12,1.17,3.17-.5,4.54.11,5.27,1.54s.82,2.83,2.4,3.79a3.1,3.1,0,0,0,3.08.07,1.66,1.66,0,0,0,.57-2.85c-.72-.69-2.7-1.5-2.14-2.06s1.83-.52,3.07.39a3.2,3.2,0,0,0,3.3.46,1.87,1.87,0,0,0,.59-3,3.31,3.31,0,0,0-3.07-.89c-.89.16-2,.39-2.06-.32,0-.39.55-.68,1-.77,1.5-.27,3.13.72,4.4,0A1.88,1.88,0,0,0,37.6,6.31Z"></path><path class="white" d="M12.47,17.69a.85.85,0,0,1-.39-1.5,3.8,3.8,0,0,1-1.55-.63A3.69,3.69,0,0,1,8.92,12,3.74,3.74,0,0,1,5,11.86a3.8,3.8,0,0,1-1.16-1.21.84.84,0,0,1-1.53.21c-.41-.53-.09-1.07-.62-2.38A2.43,2.43,0,0,0,1,12.75,3.58,3.58,0,0,0,4,13.49a2.62,2.62,0,0,0-1.44,1.69c1.22.92,2.44,1.62,4,.24l0-.08,0,.08c-.69,2,.42,2.87,1.73,3.65a2.59,2.59,0,0,0,1-2,3.58,3.58,0,0,0,1.84,2.56,2.43,2.43,0,0,0,3.67-2.3C13.48,17.37,13.11,17.87,12.47,17.69Z"></path><path class="white" d="M15.77,1.87h0C11.43-1,6.34-.58,4.56,3.16A7.08,7.08,0,0,0,3.82,7,2.71,2.71,0,0,1,4,6.67a3.72,3.72,0,0,1,5.35-.91A3.22,3.22,0,0,1,11,9a3.21,3.21,0,0,1,3.58.27,3.7,3.7,0,0,1,1.16,5.3c-.08.12-.17.23-.26.34a7.12,7.12,0,0,0,3.32-2.15C21.57,9.69,20,4.82,15.77,1.87Z"></path><path class="white" d="M14.08,9.93a2.62,2.62,0,1,0,.69,3.63A2.6,2.6,0,0,0,14.08,9.93Zm-.16,2.32a1.55,1.55,0,0,1-2.56-1.73,1.55,1.55,0,0,1,2.56,1.73Z"></path><path class="white" d="M8.93,6.45a2.62,2.62,0,1,0,.69,3.63A2.62,2.62,0,0,0,8.93,6.45Zm.46,2.74a1.47,1.47,0,0,1-2.06.31,1.47,1.47,0,0,1-.49-2,1.47,1.47,0,0,1,2.06-.3A1.46,1.46,0,0,1,9.39,9.19Z"></path></g></svg>