<svg id="Layer_1" data-name="Layer 1" xmlns="http://www.w3.org/2000/svg" viewBox="0 0 300 300"><defs><linearGradient id="linear-gradient" x1="49.64" y1="49.64" x2="250.36" y2="250.36" gradientUnits="userSpaceOnUse"><stop offset=".11" stop-color="#ea742e"/><stop offset="1" stop-color="#c71904"/></linearGradient><linearGradient id="linear-gradient-2" x1="65.27" y1="93.38" x2="238.98" y2="267.09" gradientUnits="userSpaceOnUse"><stop offset=".11" stop-color="#318c24"/><stop offset="1" stop-color="#00210b"/></linearGradient><style>.cls-4{fill:#154f0f}</style></defs><circle cx="150" cy="150" r="142" fill="url(#linear-gradient)"/><path d="M150 16a134 134 0 0194.75 228.75 134 134 0 11-189.5-189.5A133.12 133.12 0 01150 16m0-16a150 150 0 10150 150A150 150 0 00150 0z"/><path d="M295.14 157.69c0-.53.09-1.06.16-1.59v-.21a28.65 28.65 0 01-.21-4.65v-1.42-.81l-.15-2.4c-8.31 5.73-17.57 11.39-28.87 11.39-29.16 0-29.16-20-58.33-20s-29.18 20-58.34 20-29.17-20-58.33-20-29.17 20-58.33 20c-9.12 0-16.92-3.69-24-8.13a30 30 0 01-.65 5.13 30.88 30.88 0 01-1.64 11.12C11 179.63 13.07 193.83 18 207.33a202.45 202.45 0 0019 33.5 121.09 121.09 0 0014.4 14.6 229.2 229.2 0 0041.47 23.73 225.53 225.53 0 0046.5 13 164.53 164.53 0 0032.61.3c9.54-1.64 19-4.05 28.43-6.11l.28-.06a36.41 36.41 0 013-2c9-5.3 17.32-11.69 26.21-17.18a118.1 118.1 0 0118.43-9.4c6.29-7.51 12.74-14.87 18.94-22.47 2.21-4.46 4.34-9 6.52-13.43 4.78-9.83 10.53-19.15 15.59-28.82a30.92 30.92 0 011.14-7 39.53 39.53 0 014.62-28.3z" fill="url(#linear-gradient-2)"/><path d="M295.14 157.69c0-.53.09-1.06.16-1.59v-.21a28.65 28.65 0 01-.21-4.65v-1.42-.81l-.15-2.4c-8.31 5.73-17.57 11.39-28.87 11.39-29.16 0-29.16-20-58.33-20s-29.18 20-58.34 20-29.17-20-58.33-20-29.17 20-58.33 20c-9.12 0-16.92-3.69-24-8.13a30 30 0 01-.65 5.13 30.88 30.88 0 01-1.64 11.12C11 179.63 13.07 193.83 18 207.33a202.45 202.45 0 0019 33.5 121.09 121.09 0 0014.4 14.6 229.2 229.2 0 0041.47 23.73 225.53 225.53 0 0046.5 13 164.53 164.53 0 0032.61.3c9.54-1.64 19-4.05 28.43-6.11l.28-.06a36.41 36.41 0 013-2c9-5.3 17.32-11.69 26.21-17.18a118.1 118.1 0 0118.43-9.4c6.29-7.51 12.74-14.87 18.94-22.47 2.21-4.46 4.34-9 6.52-13.43 4.78-9.83 10.53-19.15 15.59-28.82a30.92 30.92 0 011.14-7 39.53 39.53 0 014.62-28.3z" fill="none" stroke="#000" stroke-miterlimit="10" stroke-width="7"/><path class="cls-4" d="M92.89 279.16q10.6 4.18 21.56 7.34c-.62-.7-1.24-1.39-1.87-2.08-8.1-8.68-17.14-16.84-26.24-16.84a21.39 21.39 0 00-10.45 3.21q8.33 4.52 17 8.37zM248.39 257.67c6.29-7.51 12.75-14.88 18.95-22.49 1.94-3.89 3.81-7.83 5.7-11.75-2.11-7.36-6-13.66-11.45-17.06-8.24-5-19.86-3.53-31.67-3.66s-23.75-1.93-30.32 3.12-7.73 17-4.79 25.92 10.16 14.87 16.73 21.51c5.3 5.36 10.18 11.17 16.7 14.9.58-.37 1.14-.74 1.72-1.09a118.1 118.1 0 0118.43-9.4zM27.82 226.48c1.44 2.49 2.93 5 4.49 7.38a14.22 14.22 0 001.48 1.33c4.13 3.2 9.91 3.88 16.39 4.51s13.56 1.34 17.31-1.86 4.18-10.32 2.49-15.75-5.44-9.21-9.19-15.21-7.54-14.2-13.94-16.88-15.47.33-19.59 6.28-3.36 15-1.72 22.45a50.78 50.78 0 002.28 7.75zM143.83 264.26c-3 4.7-8.44 8.95-12.75 7.9s-7.46-7.49-10.14-12.54-4.89-8.82-5-12.8 1.93-8.14 5.21-11.81 7.81-6.82 12.83-7.15 10.54 2.14 12.93 6.14 1.7 9.67 1.06 15.05-1.16 10.48-4.14 15.21zM155.93 214.34c-1.22-1.33-2.28-2.72-2.16-4s1.45-2.4 2.68-3.43a11.32 11.32 0 014-2.45 6.48 6.48 0 015.34.39 5.06 5.06 0 012 5c-.4 1.77-2.07 3.15-3.59 4.47s-2.91 2.6-4.3 2.6-2.74-1.26-3.97-2.58zM172 292.44c1.12-.19 2.24-.39 3.36-.61l-.9-1.05c-1.32-1.52-2.7-3.19-4.47-3.59a5.06 5.06 0 00-5 2 6.47 6.47 0 00-.75 3.78c2.59-.11 5.17-.28 7.76-.53zM105 201.6c1.22 1.34 2.28 2.72 2.16 4s-1.45 2.4-2.68 3.42a11.34 11.34 0 01-4 2.46 6.52 6.52 0 01-5.34-.4 5 5 0 01-2-5c.4-1.78 2.07-3.15 3.59-4.47s2.91-2.6 4.3-2.6 2.74 1.25 3.97 2.59z"/><path d="M150 16a134 134 0 0194.75 228.75 134 134 0 11-189.5-189.5A133.12 133.12 0 01150 16m0-16a150 150 0 10150 150A150 150 0 00150 0z"/></svg>