<svg id="Layer_1" data-name="Layer 1" xmlns="http://www.w3.org/2000/svg" viewBox="0 0 300 300"><defs><linearGradient id="linear-gradient" x1="8" y1="150" x2="292" y2="150" gradientUnits="userSpaceOnUse"><stop offset=".11" stop-color="#ea742e"/><stop offset="1" stop-color="#c71904"/></linearGradient><linearGradient id="linear-gradient-2" x1="50.17" y1="51.19" x2="251.56" y2="252.57" gradientUnits="userSpaceOnUse"><stop offset=".11" stop-color="#318c24"/><stop offset="1" stop-color="#00210b"/></linearGradient><style>.cls-4{fill:#154f0f}</style></defs><circle cx="150" cy="150" r="142" fill="url(#linear-gradient)"/><path d="M150 16a134 134 0 0194.75 228.75 134 134 0 11-189.5-189.5A133.12 133.12 0 01150 16m0-16a150 150 0 10150 150A150 150 0 00150 0z"/><path d="M293.71 137.1a266 266 0 00-6.56-29.1 20.63 20.63 0 01-3-4.64c-4.25-9.44-8.72-18.72-12.68-28.3a87.91 87.91 0 01-4.08-12.5c-11.39-5.91-17.68-15.32-37.7-15.32-29.17 0-29.18 20-58.34 20s-29.17-20-58.33-20-29.17 20-58.33 20a38.3 38.3 0 01-16.59-4c-3.39 4.44-7 8.75-10.51 13.08A98.43 98.43 0 0022 85.16c-.22.47-.43.94-.66 1.4-1.24 2.63-2.54 5.24-3.84 7.84-2.61 6.85-4.9 13.81-7 20.85-1.54 15.47-2 31.11-2.08 46.63v1.26c1.74 7.75 3.31 15.55 4.74 23.31.57 3.14 1 6.25 1.36 9.36 2.07 5.43 4.23 10.84 6.2 16.3 5.92 7.58 10.62 14.73 13.49 24.59.06.21.11.43.17.65 3.1 4.39 6.2 8.77 9.25 13.17 10.72 6.8 21.85 13.21 30 22.71a35.27 35.27 0 0116.88 9.64 184.7 184.7 0 0132.21 5.91c20.56.44 41.13.82 61.7 1h1a72.32 72.32 0 0120.75-6.39q5.36-3.57 10.91-6.79h.05a110.85 110.85 0 0116.48-13.29 57.1 57.1 0 019.66-4.78l.84-.36c3.64-2.93 7.34-5.78 10.77-8.92 2.88-5.84 5.77-11.67 9.09-17.27a140 140 0 0111.53-16.28 21.3 21.3 0 011.42-7c3.16-7.75 6.7-15.3 10.23-22.86 1.06-13.55 4.24-26.7 6.5-40.06.16-1.84.24-3.68.29-5.51-.03-1.09-.12-2.13-.23-3.17z" fill="url(#linear-gradient-2)"/><path d="M293.71 137.1a266 266 0 00-6.56-29.1 20.63 20.63 0 01-3-4.64c-4.25-9.44-8.72-18.72-12.68-28.3a87.91 87.91 0 01-4.08-12.5c-11.39-5.91-17.68-15.32-37.7-15.32-29.17 0-29.18 20-58.34 20s-29.17-20-58.33-20-29.17 20-58.33 20a38.3 38.3 0 01-16.59-4c-3.39 4.44-7 8.75-10.51 13.08A98.43 98.43 0 0022 85.16c-.22.47-.43.94-.66 1.4-1.24 2.63-2.54 5.24-3.84 7.84-2.61 6.85-4.9 13.81-7 20.85-1.54 15.47-2 31.11-2.08 46.63v1.26c1.74 7.75 3.31 15.55 4.74 23.31.57 3.14 1 6.25 1.36 9.36 2.07 5.43 4.23 10.84 6.2 16.3 5.92 7.58 10.62 14.73 13.49 24.59.06.21.11.43.17.65 3.1 4.39 6.2 8.77 9.25 13.17 10.72 6.8 21.85 13.21 30 22.71a35.27 35.27 0 0116.88 9.64 184.7 184.7 0 0132.21 5.91c20.56.44 41.13.82 61.7 1h1a72.32 72.32 0 0120.75-6.39q5.36-3.57 10.91-6.79h.05a110.85 110.85 0 0116.48-13.29 57.1 57.1 0 019.66-4.78l.84-.36c3.64-2.93 7.34-5.78 10.77-8.92 2.88-5.84 5.77-11.67 9.09-17.27a140 140 0 0111.53-16.28 21.3 21.3 0 011.42-7c3.16-7.75 6.7-15.3 10.23-22.86 1.06-13.55 4.24-26.7 6.5-40.06.16-1.84.24-3.68.29-5.51-.03-1.09-.12-2.13-.23-3.17z" fill="none" stroke="#000" stroke-miterlimit="10" stroke-width="7"/><path class="cls-4" d="M168.58 154.66c8 8.74 15 17.85 14.16 26.09s-9.54 15.75-17.56 22.47-15.46 12.72-26.3 16.12-25 4.12-35.06-2.6-15.82-21-13.22-32.53 13.59-20.66 23.56-29.34 19.08-17.05 28.18-17.05 18.14 8.18 26.24 16.84zM264.59 95.61c8.17 5.11 12.89 16.73 13.28 28.73s-3.71 24.39-11.88 31-20.55 7.53-29.75 4.34-15.13-10.54-21.7-17.18-13.79-12.57-16.73-21.5-1.81-20.88 4.79-25.93 18.51-3.25 30.32-3.12 23.43-1.38 31.67 3.66zM244.5 192.32c3.94 3.8 2 13.6 1.27 22.7s-.38 17.4-4.32 24-12.28 11.48-21.45 12.34-19.23-2.29-24.85-8.91-6.71-16.65-6.43-26.35 2.06-19.18 7.65-23 15.05-1.83 24.66-2.07 19.48-2.46 23.47 1.29zM185.48 289.77a72.32 72.32 0 0120.75-6.39q5.36-3.57 10.91-6.79c-.8-.49-1.6-1-2.41-1.42-13.37-7.27-27.41-7.68-42.2-8.43s-30.25-1.58-40.86 5.69c-5.25 3.6-9.26 9.23-11.78 15.63l2.81.76c20.56.44 41.13.82 61.7 1zM74.79 134.12c3.75 6 7.5 9.78 9.19 15.21s1.26 12.55-2.49 15.75-10.83 2.49-17.31 1.86-12.26-1.31-16.39-4.51-6.61-9-8.25-16.43-2.4-16.5 1.72-22.45 13.19-8.93 19.59-6.28S71 128.14 74.79 134.12zM173.74 115.75c-3 4.7-8.45 9-12.76 7.89s-7.45-7.48-10.14-12.53-4.88-8.82-5-12.81 1.93-8.13 5.21-11.8 7.81-6.82 12.82-7.15 10.57 2.15 13 6.15 1.7 9.67 1.06 15-1.21 10.55-4.19 15.25z"/><path class="cls-4" d="M158.93 103.58c-1.22-1.33-2.28-2.72-2.16-4s1.45-2.4 2.68-3.43a11.46 11.46 0 014-2.45 6.52 6.52 0 015.34.39 5.07 5.07 0 012 5c-.4 1.77-2.07 3.15-3.59 4.47s-2.91 2.6-4.3 2.6-2.74-1.26-3.97-2.58zM177.48 188.29c-1.33 1.22-2.72 2.28-4 2.16s-2.4-1.45-3.43-2.68a11.09 11.09 0 01-2.45-4 6.44 6.44 0 01.39-5.34 5.06 5.06 0 015-2c1.77.4 3.15 2.07 4.47 3.59s2.59 2.91 2.59 4.3-1.25 2.74-2.57 3.97zM108 90.84c1.22 1.34 2.28 2.72 2.16 4s-1.45 2.4-2.68 3.42a11.34 11.34 0 01-4 2.46 6.52 6.52 0 01-5.34-.4 5 5 0 01-2-4.95c.4-1.78 2.07-3.15 3.59-4.47s2.91-2.6 4.3-2.6 2.74 1.2 3.97 2.54z"/><path d="M150 16a134 134 0 0194.75 228.75 134 134 0 11-189.5-189.5A133.12 133.12 0 01150 16m0-16a150 150 0 10150 150A150 150 0 00150 0z"/></svg>