<svg id="Layer_1" data-name="Layer 1" xmlns="http://www.w3.org/2000/svg" viewBox="0 0 300 300"><defs><linearGradient id="linear-gradient" x1="49.64" y1="49.64" x2="250.36" y2="250.36" gradientUnits="userSpaceOnUse"><stop offset=".11" stop-color="#ea742e"/><stop offset="1" stop-color="#c71904"/></linearGradient><linearGradient id="linear-gradient-2" x1="22.16" y1="247.88" x2="289.08" y2="247.88" gradientUnits="userSpaceOnUse"><stop offset=".11" stop-color="#318c24"/><stop offset="1" stop-color="#00210b"/></linearGradient><style>.cls-4{fill:#154f0f}</style></defs><circle cx="150" cy="150" r="142" fill="url(#linear-gradient)"/><path d="M150 16a134 134 0 0194.75 228.75 134 134 0 11-189.5-189.5A133.12 133.12 0 01150 16m0-16a150 150 0 10150 150A150 150 0 00150 0z"/><path d="M226.78 222.76c-29.16 0-29.16-20-58.33-20s-29.18 20-58.34 20-29.17-20-58.33-20c-14.88 0-22.17 5.21-29.62 10.31a40.58 40.58 0 012.52 12.34v2.75a37.45 37.45 0 0122.04 25.64 36.49 36.49 0 0119.37 16.43 36.09 36.09 0 0111.06 8.54 28.34 28.34 0 013.44 1.52 27 27 0 019.13 5.06 35.65 35.65 0 014.78 1.07c.79-.06 1.59-.1 2.38-.1a35.23 35.23 0 0124.58 9.84c13.14.26 26.3-.33 39.42-.86l13.89-.54a42.3 42.3 0 0110.53-5c11.88-3.77 24-6.75 36-10.18a27.84 27.84 0 018.18-6.61l4.23-2.11c.32-.19.65-.35 1-.53a39.23 39.23 0 0114.21-11.49c10.34-11.74 21-23.27 31.08-35.22.23-.26.47-.51.7-.76 2.76-6.63 5.52-13.25 8.37-19.84-19.13-14.2-34.62 19.74-62.29 19.74z" fill="url(#linear-gradient-2)"/><path d="M226.78 222.76c-29.16 0-29.16-20-58.33-20s-29.18 20-58.34 20-29.17-20-58.33-20c-14.23 0-21.53 4.76-28.66 9.63a40.14 40.14 0 012 8.63c3.24 4.67 6.32 9.43 9.25 14.45 2 3.39 4 6.75 6 10.07 4 2.91 7.8 6 11.65 9a108.09 108.09 0 0018.11 11.36c5.79 2.75 10.19 7.9 13.29 13.63 1.72 1.07 3.46 2.13 5.24 3.11 9.17 2.9 18.85 3.94 28.33 5.53 7.58 1.27 15.17 2.59 22.77 3.8h36.85c.77-.29 1.55-.57 2.33-.81a195.85 195.85 0 0124-5.93 38.34 38.34 0 019.42-4.4c3.08-4.6 7.11-8.67 11.49-10.7A154.33 154.33 0 00249.53 255a99.48 99.48 0 008.76-8 63.83 63.83 0 003-6c5.22-12.68 10.77-25.86 21.08-34.89a32.42 32.42 0 011.27-3.87c.16-.62.34-1.24.54-1.85-16.99-5.97-32.1 22.37-57.4 22.37z" fill="none" stroke="#000" stroke-miterlimit="10" stroke-width="7"/><path class="cls-4" d="M168.26 282c3.91 4 7.6 8.14 11.87 11.57a36.54 36.54 0 0110.11-4.57l5-.67h.07a27 27 0 017.53-3.82 27.34 27.34 0 017.45-2.62 163 163 0 0014.71-8.11 29.89 29.89 0 015.5-3.59c.32-.22.63-.45.94-.68a48.34 48.34 0 00.17-5.65c-.39-12-5.11-23.62-13.28-28.73s-19.86-3.53-31.67-3.66-23.75-1.93-30.32 3.12-7.73 17-4.79 25.92 10.14 14.87 16.71 21.49zM112.46 271.27c-3 4.7-8.45 9-12.76 7.89s-7.45-7.48-10.14-12.53-4.88-8.82-5-12.81 1.93-8.13 5.21-11.8 7.81-6.82 12.82-7.15 10.57 2.15 13 6.15 1.7 9.67 1.06 15-1.21 10.55-4.19 15.25z"/><path class="cls-4" d="M97.65 259.1c-1.22-1.33-2.28-2.72-2.16-4s1.45-2.4 2.68-3.43a11.61 11.61 0 014-2.45 6.52 6.52 0 015.34.39 5.07 5.07 0 012 5c-.4 1.77-2.07 3.15-3.59 4.47s-2.91 2.6-4.3 2.6-2.74-1.26-3.97-2.58z"/><path d="M150 16a134 134 0 0194.75 228.75 134 134 0 11-189.5-189.5A133.12 133.12 0 01150 16m0-16a150 150 0 10150 150A150 150 0 00150 0z"/></svg>