<?xml-stylesheet href="main.css" type="text/css"?>
<svg class="special-icon-svg special-icon9-svg" xmlns="http://www.w3.org/2000/svg" aria-labelledby="special-icon9-svg-title-5941bdb6-0510-4b68-9633-4dd072bc2c31" viewBox="0 0 107.96 107.96"><g><title id="special-icon9-svg-title-5941bdb6-0510-4b68-9633-4dd072bc2c31">Specials used</title><rect class="area" width="107.96" height="107.96" rx="29.84" ry="29.84"></rect><path class="gr1" d="M13.09 78.37c1.63-1 3.43-1.43 5.88-2.21s3.93-1.09 4.17-3.41c.28-2.72-.09-8.46.34-11.61.41-3 2.45-4.61 5.74-6.06a85.87 85.87 0 0 1 9.2-2.69 22.91 22.91 0 0 1 2.83 9.94c-1.69.22-3.42.42-5 .58-2.43.26-3.73.35-4.13 1.73a28.93 28.93 0 0 0-1.47 7 23.78 23.78 0 0 0 .19 5.92c.38 2.36.16 4.45-3.56 5.14-3.32.62-4.31-.42-7.08.45-2.44.76-4.78.94-6.59.11-2.3-1-2.7-3.51-.52-4.89z"></path><path class="gr2" d="M45.59 50.14c3.15-1.54 6.26.82 7.28 3.19s1.45 5.25-3.52 7.3c-1.74.72-5.48 2.62-8.73 3-.24-3.52-.48-8.27-2.2-11.29a48.78 48.78 0 0 0 7.17-2.2z"></path><path class="gr3" d="M69.75 64.64c-.82 3.22.69 4.33 2.65 2.77C77.22 63.53 80.87 62 84.31 60c3.16-1.8 8.36.11 10.15 2.31 2.3 2.83-.35 7.46 1.42 11.6S93.87 81 88 81.46c-4.32.3-3.16-3-2-5.44s.73-6.69-.65-6.33c-2 .53-4.34 2-7.89 4-2.89 1.68-7.11 5.1-11.06 4.28-3.33-.69-4.28-1.9-5.71-7.38-.37-1.43-.69-3.06-1-4.57a18.81 18.81 0 0 0 10.48-3.45 16.72 16.72 0 0 1-.42 2.07z"></path><path class="gr4" d="M37 40.53c-4 2.62-3.25 7-2 12.11 1.45 5.81 2.32 6.6 1.8 10.87-.78 6.4 2.1 11.32 1.54 14.25-.38 2-4 3.65-4.38 5.79-.54 2.88-.14 5.39 4 6.52a15.07 15.07 0 0 0 8.22.08c2.45-.64 2.92-1.68 2.93-5.45 0-3-2.07-4.48-4.17-5.68-3.85-2.19 2.78-10-1.31-18.6-1.24-2.62.37-6.53.85-12.18.52-5.15-4.41-9.67-7.48-7.71z"></path><path class="bg1" d="M29.6 82.44c1.46 1.77 1.76 2.74 3.38 4.23a32.78 32.78 0 0 1 .36-10.51 13 13 0 0 0 1.54 4.36 74.74 74.74 0 0 1 3-12l3.05 8.7 1.71-11.61a40.36 40.36 0 0 1 4.76 15.27l1.38-6a21.27 21.27 0 0 1 1.11 9.72 31 31 0 0 1 2.69-3.88 23.86 23.86 0 0 1-.63 10.47 7.86 7.86 0 0 1-1.07 2.45 11.31 11.31 0 0 1-4.12 2.73c-5 1.64-8.54.83-11.8-1.81-2.4-2.13-4.46-5.63-5.36-12.12z"></path><path class="gr5" d="M38.2 36.44c.52-3.55 13.23-4.14 17-2.61s7 4.21 7.6 8.19c.83 5.27-.17 8.93 1.41 10.58s4.32 3.11 5.9 5.65a7 7 0 0 1 .89 4.94 30.07 30.07 0 0 1-12.32 3.57c-.56-2.11-.6-3.93-1.58-4.12-11.17-2.12-15.64-10.14-16.1-17-.23-4.37-3.32-5.64-2.8-9.2z"></path><path class="gr6" d="M59.91 28.79s10.47-2.56 14.15-2 4.16 1.21 5.28 3.15S81.52 38.33 82 40s.76 1.81 2.47 3 1.69 4.21.78 5.7c-1.25 2.06-5.46 2.43-7.3 2s-3.84-3.21-4-4.74c-.1-1.15 1.4-2.07 1.65-3.73s-1.2-7.59-2.37-8.31c-.85-.52-6.23 1.11-8.73 2.93-2.66 1.94-6 1.51-7.42-1.25s-.89-6.21 2.83-6.81z"></path><path class="gr7" d="M53.52 25.46l-.29-2.74a1.5 1.5 0 0 1 1.1-1.61 8.48 8.48 0 0 1 5.07.14c1.31.62-.84 5.51-2.16 6.6 0 0 1.77 3.29-2.8 8.43A20.93 20.93 0 0 1 41 43.06c-4 .47-7.12-1.91-7.9-3.73a7.68 7.68 0 0 1-5.26-2.09c-1.8-1.75 1.29-4.12 2.38-4.38A4 4 0 0 0 32 35.6a57.82 57.82 0 0 0-.8-6.24S34.57 31 40.9 28a29.14 29.14 0 0 0 7.42-4.94l-.56-3.47 1.94 2.11s2.05 2.14 3.82 3.76z"></path><path class="bg1" d="M26.13 41.95c2.46-3.09 1.6-5.27 1.73-8.81a15.68 15.68 0 0 1-1.93-10.41c1.1-5.86 11.74-14 20.9-11.57a14.09 14.09 0 0 1 10.3 9.65 10.24 10.24 0 0 0-2.79.3 1.5 1.5 0 0 0-1.1 1.61c3.68 3.41 6.6 6.12 6.26 11.24-.35 5.27-1.77 7.3-5.73 8.77-1 .38-6.29-1.36-4.57-7 1.45-4.73.09-8.59-1.81-11.87A29.12 29.12 0 0 1 40.9 28a15.57 15.57 0 0 1-8 1.71 5.9 5.9 0 0 1-1.73-.38c.59 3 .95 6.1.95 6.1a10.85 10.85 0 0 0 1 3.86 5.92 5.92 0 0 0 2.15 2.35c.36 2.85-.53 4.29-4 6-5.17 2.47-7.65-2.53-5.14-5.69z"></path></g></svg>