<?xml-stylesheet href="main.css" type="text/css"?>
<svg class="special-icon-svg special-icon3-svg" xmlns="http://www.w3.org/2000/svg" aria-labelledby="special-icon3-svg-title-025503e9-e964-462f-a40d-3adbed734e3c" viewBox="0 0 107.96 107.96"><g><title id="special-icon3-svg-title-025503e9-e964-462f-a40d-3adbed734e3c">Specials used</title><rect class="area" width="107.96" height="107.96" rx="29.84" ry="29.84"></rect><path class="gr2" d="M36.8,63.71,36.4,62.1a2,2,0,0,0-1.84-1.53l-2.42-10-3.55.86,2.42,10a2,2,0,0,0-.93,2.21l.39,1.62A12.42,12.42,0,0,0,24.9,80.7a24.21,24.21,0,0,0,12.71.15,24.21,24.21,0,0,0,11.23-6,12.42,12.42,0,0,0-12-11.17Z"></path><ellipse class="gr3" cx="30.88" cy="53.14" rx="12.54" ry="3.89" transform="translate(-11.67 8.79) rotate(-13.65)"></ellipse><ellipse class="gr4" cx="24.47" cy="26.74" rx="12.54" ry="4.47" transform="translate(-5.62 6.53) rotate(-13.65)"></ellipse><path class="bg1" d="M31.1,54h0C26,55.26,21.72,55.62,21,52.47l-5.2-21.41C15,27.92,19,26.35,24.08,25.12h0c5.07-1.23,9.35-1.68,10.12,1.46L39.39,48C40.16,51.14,36.17,52.8,31.1,54Z"></path><ellipse class="bg1" cx="35.76" cy="72.83" rx="1.95" ry="1.87" transform="translate(-16.18 10.5) rotate(-13.65)"></ellipse><path class="bg1" d="M39.87,69.38a1.65,1.65,0,0,0-.66,2.31,1.87,1.87,0,0,0,2.29,1.08,1.65,1.65,0,0,0,.66-2.31A1.87,1.87,0,0,0,39.87,69.38Z"></path><path class="bg1" d="M30.53,71.65a1.87,1.87,0,0,0-1.54,2,1.65,1.65,0,0,0,1.65,1.74,1.87,1.87,0,0,0,1.54-2A1.65,1.65,0,0,0,30.53,71.65Z"></path><ellipse class="bg1" cx="26.46" cy="73.45" rx="1.87" ry="1.38" transform="translate(-50.24 88) rotate(-80.93)"></ellipse><ellipse class="bg1" cx="44.32" cy="69.12" rx="1.38" ry="1.87" transform="translate(-32.35 39.74) rotate(-36.37)"></ellipse><path class="gr6" d="M80.54,58.18l.35-1.57a2,2,0,0,0-.94-2.12l2.18-9.69L78.68,44,76.5,53.71a2,2,0,0,0-1.76,1.51l-.35,1.57a12,12,0,0,0-11.49,11,24.91,24.91,0,0,0,23.29,5.25,12,12,0,0,0-5.65-14.88Z"></path><ellipse class="gr7" cx="79.95" cy="46.46" rx="3.77" ry="12.15" transform="translate(17.05 114.23) rotate(-77.3)"></ellipse><ellipse class="gr8" cx="85.73" cy="20.78" rx="4.34" ry="12.15" transform="translate(46.61 99.85) rotate(-77.3)"></ellipse><path class="bg1" d="M79.75,47.32h0c-4.93-1.11-8.82-2.65-8.13-5.71l4.69-20.83c.69-3.06,4.85-2.69,9.78-1.58h0c4.93,1.11,8.84,2.56,8.15,5.62L89.55,45.66C88.86,48.71,84.68,48.44,79.75,47.32Z"></path><ellipse class="bg1" cx="75.71" cy="65.66" rx="1.81" ry="1.89" transform="translate(-4.99 125.09) rotate(-77.3)"></ellipse><path class="bg1" d="M80.76,64.43a1.59,1.59,0,0,0-1.57,1.72,1.81,1.81,0,0,0,1.52,1.92,1.59,1.59,0,0,0,1.57-1.72A1.81,1.81,0,0,0,80.76,64.43Z"></path><path class="bg1" d="M71.68,62.38a1.81,1.81,0,0,0-2.2,1.08,1.59,1.59,0,0,0,.68,2.22,1.81,1.81,0,0,0,2.2-1.08A1.59,1.59,0,0,0,71.68,62.38Z"></path><ellipse class="bg1" cx="67.37" cy="62.2" rx="1.81" ry="1.34" transform="translate(-22.36 81.05) rotate(-54.58)"></ellipse><ellipse class="bg1" cx="84.74" cy="66.11" rx="1.34" ry="1.81" transform="translate(-10.21 15.75) rotate(-10.02)"></ellipse><path class="gr9" d="M58.8,78.53V76.77a2.13,2.13,0,0,0-1.5-2V63.95H53.45v10.8a2.13,2.13,0,0,0-1.5,2v1.75A13.08,13.08,0,0,0,42.4,93a25.5,25.5,0,0,0,13,3.31,25.5,25.5,0,0,0,13-3.31A13.08,13.08,0,0,0,58.8,78.53Z"></path><ellipse class="gr10" cx="55.38" cy="66.23" rx="13.21" ry="4.1"></ellipse><ellipse class="gr11" cx="55.38" cy="37.63" rx="13.21" ry="4.71"></ellipse><path class="bg1" d="M55.38,67.2h0c-5.49,0-10-.7-10-4.11V39.88c0-3.41,4.5-4,10-4h0c5.49,0,10,.6,10,4V63.09C65.36,66.49,60.87,67.2,55.38,67.2Z"></path><ellipse class="bg1" cx="55.48" cy="87.61" rx="2.06" ry="1.97"></ellipse><path class="bg1" d="M60.54,85.09a1.73,1.73,0,0,0-1.25,2.19A2,2,0,0,0,61.36,89a1.73,1.73,0,0,0,1.25-2.19A2,2,0,0,0,60.54,85.09Z"></path><path class="bg1" d="M50.42,85.09a2,2,0,0,0-2.07,1.67A1.73,1.73,0,0,0,49.6,89a2,2,0,0,0,2.07-1.67A1.73,1.73,0,0,0,50.42,85.09Z"></path><ellipse class="bg1" cx="45.8" cy="85.92" rx="1.97" ry="1.45" transform="translate(-51.15 94.99) rotate(-67.28)"></ellipse><ellipse class="bg1" cx="65.15" cy="85.92" rx="1.45" ry="1.97" transform="translate(-28.13 31.83) rotate(-22.72)"></ellipse></g></svg>